<?xml version="1.0" encoding="UTF-8"?>
<svg id="Layer_1" data-name="Layer 1" xmlns="http://www.w3.org/2000/svg" viewBox="0 0 236.82 174.26">
  <defs>
    <style>
      .cls-1 {
        fill: #ee3224;
      }

      .cls-2 {
        fill: #2e3192;
      }

      .cls-3 {
        fill: #fff;
        stroke: #ee3224;
        stroke-width: 5px;
      }

      .cls-4 {
        fill: #fff;
      }
    </style>
  </defs>
  <g>
    <g>
      <polygon class="cls-2" points="114.36 112.17 69.07 66.87 68.07 65.87 66.66 65.87 47.36 65.87 46.36 65.87 46.36 66.87 46.36 110.87 46.36 111.87 47.36 111.87 66.66 111.87 114.36 159.58 115.37 160.58 115.37 159.17 115.37 114.58 115.37 113.17 114.36 112.17"/>
      <polygon class="cls-2" points="188.87 65.87 169.57 65.87 168.16 65.87 167.16 66.87 121.86 112.17 120.86 113.17 120.86 114.58 120.86 159.17 120.86 160.58 121.86 159.58 169.57 111.87 188.87 111.87 189.86 111.87 189.86 110.87 189.86 66.87 189.86 65.87 188.87 65.87"/>
    </g>
    <g>
      <ellipse class="cls-3" cx="118.11" cy="40.75" rx="38.87" ry="38.25"/>
      <circle class="cls-1" cx="118.11" cy="40.75" r="30.25"/>
    </g>
  </g>
  <g class="cls-4">
    <path d="M0,166.15c.56-.1,1.36-.17,2.47-.17s1.93,.22,2.47,.65c.52,.41,.86,1.08,.86,1.87s-.26,1.46-.74,1.92c-.62,.59-1.55,.85-2.63,.85-.24,0-.46-.01-.62-.04v2.89H0v-7.98Zm1.81,3.67c.16,.04,.35,.05,.61,.05,.97,0,1.57-.49,1.57-1.32,0-.74-.52-1.19-1.43-1.19-.37,0-.62,.04-.76,.07v2.39Z"/>
    <path d="M11.78,170.71h-2.97v1.92h3.32v1.5H6.97v-8.08h4.99v1.5h-3.15v1.68h2.97v1.49Z"/>
    <path d="M20.22,171.03c-.04-.97-.07-2.15-.07-3.32h-.04c-.25,1.03-.59,2.18-.9,3.13l-.98,3.15h-1.43l-.86-3.12c-.26-.96-.54-2.11-.73-3.17h-.02c-.05,1.09-.08,2.34-.14,3.35l-.14,3.07h-1.69l.52-8.08h2.43l.79,2.7c.25,.92,.5,1.94,.68,2.89h.04c.23-.94,.5-2,.77-2.9l.86-2.69h2.39l.44,8.08h-1.79l-.12-3.09Z"/>
    <path d="M23.53,166.15c.48-.1,1.45-.17,2.36-.17,1.12,0,1.8,.11,2.39,.46,.56,.3,.97,.85,.97,1.58s-.42,1.39-1.33,1.73v.02c.92,.25,1.61,.95,1.61,1.99,0,.73-.34,1.31-.84,1.71-.59,.47-1.57,.73-3.18,.73-.9,0-1.57-.06-1.98-.12v-7.94Zm1.81,3.09h.6c.96,0,1.48-.4,1.48-1s-.47-.94-1.29-.94c-.4,0-.62,.02-.78,.05v1.88Zm0,3.59c.18,.02,.4,.02,.71,.02,.83,0,1.56-.32,1.56-1.16s-.73-1.14-1.64-1.14h-.62v2.28Z"/>
    <path d="M32.61,172.05l-.58,2.08h-1.89l2.47-8.08h2.4l2.51,8.08h-1.97l-.62-2.08h-2.31Zm2.05-1.37l-.5-1.71c-.14-.48-.29-1.08-.41-1.56h-.02c-.12,.48-.24,1.09-.37,1.56l-.48,1.71h1.79Z"/>
    <path d="M38.6,174.12v-8.08h2.13l1.68,2.96c.48,.85,.96,1.86,1.32,2.77h.04c-.12-1.07-.16-2.16-.16-3.38v-2.35h1.68v8.08h-1.92l-1.73-3.12c-.48-.86-1.01-1.91-1.4-2.85h-.04c.05,1.08,.07,2.22,.07,3.54v2.43h-1.68Z"/>
    <path d="M53.64,173.75c-.56,.19-1.63,.46-2.7,.46-1.48,0-2.54-.37-3.29-1.09-.74-.7-1.15-1.75-1.14-2.94,.01-2.69,1.97-4.22,4.62-4.22,1.04,0,1.85,.2,2.24,.4l-.38,1.46c-.44-.19-1-.35-1.88-.35-1.52,0-2.67,.86-2.67,2.61s1.04,2.65,2.54,2.65c.42,0,.76-.05,.9-.12v-1.69h-1.25v-1.43h3.01v4.26Z"/>
    <path d="M56.89,166.04v4.65c0,1.39,.53,2.1,1.46,2.1s1.49-.67,1.49-2.1v-4.65h1.82v4.53c0,2.49-1.26,3.68-3.37,3.68s-3.24-1.13-3.24-3.71v-4.51h1.83Z"/>
    <path d="M63.25,174.12v-8.08h2.13l1.68,2.96c.48,.85,.96,1.86,1.32,2.77h.04c-.12-1.07-.16-2.16-.16-3.38v-2.35h1.68v8.08h-1.92l-1.73-3.12c-.48-.86-1.01-1.91-1.4-2.85h-.04c.05,1.08,.07,2.22,.07,3.54v2.43h-1.68Z"/>
    <path d="M73.41,172.05l-.58,2.08h-1.89l2.47-8.08h2.4l2.51,8.08h-1.97l-.62-2.08h-2.31Zm2.05-1.37l-.5-1.71c-.14-.48-.29-1.08-.41-1.56h-.02c-.12,.48-.24,1.09-.37,1.56l-.48,1.71h1.79Z"/>
    <path d="M79.4,174.12v-8.08h2.13l1.68,2.96c.48,.85,.96,1.86,1.32,2.77h.04c-.12-1.07-.16-2.16-.16-3.38v-2.35h1.68v8.08h-1.92l-1.73-3.12c-.48-.86-1.01-1.91-1.4-2.85h-.04c.05,1.08,.07,2.22,.07,3.54v2.43h-1.68Z"/>
    <path d="M90.17,172.24c.49,.25,1.25,.5,2.03,.5,.84,0,1.28-.35,1.28-.88s-.38-.79-1.35-1.14c-1.34-.47-2.22-1.21-2.22-2.39,0-1.38,1.15-2.43,3.06-2.43,.91,0,1.58,.19,2.06,.41l-.41,1.48c-.32-.16-.9-.38-1.69-.38s-1.18,.36-1.18,.78c0,.52,.46,.74,1.5,1.14,1.43,.53,2.1,1.27,2.1,2.41,0,1.36-1.04,2.52-3.26,2.52-.92,0-1.83-.25-2.29-.5l.37-1.51Z"/>
    <path d="M98.41,166.04v4.65c0,1.39,.53,2.1,1.46,2.1s1.49-.67,1.49-2.1v-4.65h1.82v4.53c0,2.49-1.26,3.68-3.37,3.68s-3.24-1.13-3.24-3.71v-4.51h1.83Z"/>
    <path d="M111.61,171.03c-.04-.97-.07-2.15-.07-3.32h-.04c-.25,1.03-.59,2.18-.9,3.13l-.98,3.15h-1.43l-.86-3.12c-.26-.96-.54-2.11-.73-3.17h-.02c-.05,1.09-.08,2.34-.14,3.35l-.14,3.07h-1.69l.52-8.08h2.44l.79,2.7c.25,.92,.5,1.94,.68,2.89h.04c.23-.94,.5-2,.77-2.9l.86-2.69h2.39l.44,8.08h-1.79l-.12-3.09Z"/>
    <path d="M114.92,166.15c.48-.1,1.45-.17,2.36-.17,1.12,0,1.8,.11,2.39,.46,.56,.3,.97,.85,.97,1.58s-.42,1.39-1.33,1.73v.02c.92,.25,1.61,.95,1.61,1.99,0,.73-.34,1.31-.84,1.71-.59,.47-1.57,.73-3.18,.73-.9,0-1.57-.06-1.98-.12v-7.94Zm1.81,3.09h.6c.96,0,1.48-.4,1.48-1s-.47-.94-1.3-.94c-.4,0-.62,.02-.78,.05v1.88Zm0,3.59c.18,.02,.4,.02,.71,.02,.83,0,1.56-.32,1.56-1.16s-.73-1.14-1.64-1.14h-.62v2.28Z"/>
    <path d="M126.98,170.71h-2.97v1.92h3.32v1.5h-5.16v-8.08h4.99v1.5h-3.15v1.68h2.97v1.49Z"/>
    <path d="M128.58,166.15c.59-.1,1.46-.17,2.43-.17,1.2,0,2.04,.18,2.61,.64,.48,.38,.74,.95,.74,1.69,0,1.03-.73,1.74-1.43,1.99v.04c.56,.23,.87,.77,1.08,1.51,.25,.91,.5,1.97,.66,2.28h-1.87c-.13-.24-.32-.89-.56-1.88-.22-1.01-.56-1.28-1.31-1.3h-.55v3.18h-1.81v-7.98Zm1.81,3.48h.72c.91,0,1.45-.46,1.45-1.16,0-.74-.5-1.12-1.34-1.13-.44,0-.7,.04-.83,.06v2.23Z"/>
    <path d="M144.95,171.03c-.04-.97-.07-2.15-.07-3.32h-.04c-.25,1.03-.59,2.18-.9,3.13l-.98,3.15h-1.43l-.86-3.12c-.26-.96-.54-2.11-.73-3.17h-.02c-.05,1.09-.08,2.34-.14,3.35l-.14,3.07h-1.69l.52-8.08h2.44l.79,2.7c.25,.92,.5,1.94,.68,2.89h.04c.23-.94,.5-2,.77-2.9l.86-2.69h2.39l.44,8.08h-1.79l-.12-3.09Z"/>
    <path d="M150.12,172.05l-.58,2.08h-1.89l2.47-8.08h2.4l2.51,8.08h-1.97l-.62-2.08h-2.31Zm2.05-1.37l-.5-1.71c-.14-.48-.29-1.08-.41-1.56h-.02c-.12,.48-.24,1.09-.37,1.56l-.48,1.71h1.79Z"/>
    <path d="M156.11,174.12v-8.08h2.13l1.68,2.96c.48,.85,.96,1.86,1.32,2.77h.04c-.12-1.07-.16-2.16-.16-3.38v-2.35h1.68v8.08h-1.92l-1.73-3.12c-.48-.86-1.01-1.91-1.4-2.85h-.04c.05,1.08,.07,2.22,.07,3.54v2.43h-1.68Z"/>
    <path d="M166.21,166.04v4.65c0,1.39,.53,2.1,1.46,2.1s1.49-.67,1.49-2.1v-4.65h1.82v4.53c0,2.49-1.26,3.68-3.37,3.68s-3.24-1.13-3.24-3.71v-4.51h1.83Z"/>
    <path d="M172.63,172.24c.49,.25,1.25,.5,2.03,.5,.84,0,1.28-.35,1.28-.88s-.38-.79-1.36-1.14c-1.34-.47-2.22-1.21-2.22-2.39,0-1.38,1.15-2.43,3.06-2.43,.91,0,1.58,.19,2.06,.41l-.41,1.48c-.32-.16-.9-.38-1.69-.38s-1.18,.36-1.18,.78c0,.52,.46,.74,1.5,1.14,1.43,.53,2.1,1.27,2.1,2.41,0,1.36-1.04,2.52-3.26,2.52-.92,0-1.83-.25-2.29-.5l.37-1.51Z"/>
    <path d="M180.89,166.04v8.08h-1.83v-8.08h1.83Z"/>
    <path d="M184.35,172.05l-.58,2.08h-1.89l2.47-8.08h2.4l2.51,8.08h-1.97l-.62-2.08h-2.31Zm2.05-1.37l-.5-1.71c-.14-.48-.29-1.08-.41-1.56h-.02c-.12,.48-.24,1.09-.37,1.56l-.48,1.71h1.79Z"/>
    <path d="M192.77,166.15c.48-.1,1.45-.17,2.36-.17,1.12,0,1.8,.11,2.39,.46,.56,.3,.97,.85,.97,1.58s-.42,1.39-1.33,1.73v.02c.92,.25,1.61,.95,1.61,1.99,0,.73-.34,1.31-.84,1.71-.59,.47-1.57,.73-3.18,.73-.9,0-1.57-.06-1.98-.12v-7.94Zm1.81,3.09h.6c.96,0,1.48-.4,1.48-1s-.47-.94-1.3-.94c-.4,0-.62,.02-.78,.05v1.88Zm0,3.59c.18,.02,.4,.02,.71,.02,.83,0,1.56-.32,1.56-1.16s-.73-1.14-1.64-1.14h-.62v2.28Z"/>
    <path d="M204.82,170.71h-2.97v1.92h3.32v1.5h-5.16v-8.08h4.99v1.5h-3.15v1.68h2.97v1.49Z"/>
    <path d="M206.42,166.15c.59-.1,1.46-.17,2.43-.17,1.2,0,2.04,.18,2.61,.64,.48,.38,.74,.95,.74,1.69,0,1.03-.73,1.74-1.43,1.99v.04c.56,.23,.87,.77,1.08,1.51,.25,.91,.5,1.97,.66,2.28h-1.87c-.13-.24-.32-.89-.56-1.88-.22-1.01-.56-1.28-1.31-1.3h-.55v3.18h-1.81v-7.98Zm1.81,3.48h.72c.91,0,1.45-.46,1.45-1.16,0-.74-.5-1.12-1.34-1.13-.44,0-.7,.04-.83,.06v2.23Z"/>
    <path d="M215.37,166.04v3.11h3.01v-3.11h1.82v8.08h-1.82v-3.38h-3.01v3.38h-1.83v-8.08h1.83Z"/>
    <path d="M223.69,172.05l-.58,2.08h-1.89l2.47-8.08h2.4l2.51,8.08h-1.97l-.62-2.08h-2.31Zm2.05-1.37l-.5-1.71c-.14-.48-.29-1.08-.41-1.56h-.02c-.12,.48-.24,1.09-.37,1.56l-.48,1.71h1.79Z"/>
    <path d="M229.68,166.15c.67-.11,1.55-.17,2.47-.17,1.54,0,2.53,.28,3.31,.86,.84,.62,1.37,1.62,1.37,3.05,0,1.55-.56,2.61-1.34,3.27-.85,.71-2.15,1.04-3.73,1.04-.95,0-1.62-.06-2.07-.12v-7.94Zm1.83,6.6c.16,.04,.41,.04,.64,.04,1.65,.01,2.73-.9,2.73-2.83,.01-1.68-.97-2.57-2.54-2.57-.41,0-.67,.04-.83,.07v5.29Z"/>
  </g>
</svg>
