<?xml version="1.0" encoding="utf-8"?>
<!-- Generator: Adobe Illustrator 27.0.0, SVG Export Plug-In . SVG Version: 6.00 Build 0)  -->
<svg version="1.1" id="Layer_1" xmlns="http://www.w3.org/2000/svg" xmlns:xlink="http://www.w3.org/1999/xlink" x="0px" y="0px"
	 viewBox="0 0 385.9 189.6" style="enable-background:new 0 0 385.9 189.6;" xml:space="preserve">
<style type="text/css">
	.st0{fill:#000F9F;}
	.st1{fill:#FFFFFF;}
	.st2{fill-rule:evenodd;clip-rule:evenodd;fill:#F32735;}
	.st3{fill-rule:evenodd;clip-rule:evenodd;fill:#FEBF32;}
	.st4{fill-rule:evenodd;clip-rule:evenodd;fill:#000F9F;}
</style>
<g>
	<path class="st0" d="M35.7,89.9H17.8V139H0V76.6h73.6c10.4,0,15.6,4.5,15.6,13.4V139H71.4V92.2c0-1.5-0.7-2.2-2.2-2.2H53.5V139
		H35.7C35.7,139,35.7,89.9,35.7,89.9z"/>
	<path class="st0" d="M98.1,76.6h64.7c10.4,0,15.6,5.2,15.6,15.6v6.7c0,4.5-1.5,7.4-4.5,8.9c3,1.5,4.5,4.5,4.5,8.9v6.7
		c0,10.4-5.2,15.6-15.6,15.6H98.1V76.6z M158.3,101.1c1.5,0,2.2-0.7,2.2-2.2v-6.7c0-1.5-0.7-2.2-2.2-2.2l-42.4,0v11.2
		C116,101.1,158.3,101.1,158.3,101.1z M116,125.6h42.4c1.5,0,2.2-0.7,2.2-2.2v-6.7c0-1.5-0.7-2.2-2.2-2.2H116V125.6L116,125.6z"/>
	<path class="st0" d="M347.9,76.5v13.4h-26.7V139h-17.9l0-49.1l-26.7,0V76.4L347.9,76.5L347.9,76.5z"/>
</g>
<g>
	<path class="st1" d="M3.4,169.3v-11.4h2.2v9.7h9.3v1.7H3.4z"/>
	<path class="st1" d="M16.3,169.3v-11.4h11.7v1.7h-9.6v2.9h9.1v1.7h-9.1v3.5h9.6v1.7L16.3,169.3L16.3,169.3z"/>
	<path class="st1" d="M45.3,169.3v-8l-5.8,8h-1.8l-5.8-8v8h-2v-11.4h2l6.8,9.3l6.8-9.3h1.8v11.4H45.3L45.3,169.3z"/>
	<path class="st1" d="M49.4,169.3v-11.4h9.3c0.6,0,1.2,0.1,1.6,0.2c0.5,0.1,0.8,0.3,1.1,0.5s0.5,0.5,0.6,0.8s0.2,0.6,0.2,1v1.1
		c0,0.5-0.1,0.9-0.4,1.3s-0.6,0.6-1,0.6c0.4,0.1,0.8,0.3,1.1,0.6s0.4,0.7,0.4,1.3v1.7c0,0.3-0.1,0.6-0.2,0.9
		c-0.1,0.3-0.3,0.6-0.6,0.8c-0.3,0.2-0.7,0.4-1.1,0.5c-0.5,0.1-1,0.2-1.8,0.2L49.4,169.3L49.4,169.3z M60.1,160.5
		c0-0.3-0.1-0.5-0.3-0.7c-0.2-0.1-0.5-0.2-1-0.2h-7.1v3h7.1c0.5,0,0.9-0.1,1-0.2s0.3-0.4,0.3-0.7V160.5L60.1,160.5z M60.2,165.2
		c0-0.4-0.1-0.6-0.4-0.8c-0.3-0.1-0.6-0.2-1-0.2h-7.2v3.4h7.2c0.4,0,0.8-0.1,1-0.2s0.4-0.5,0.4-0.9V165.2L60.2,165.2z"/>
	<path class="st1" d="M76.9,169.3l-5.9-9.2l-6,9.2h-2.4l7.6-11.4h1.6l7.5,11.4H76.9L76.9,169.3z"/>
	<path class="st1" d="M83.7,169.3c-2.7,0-4.1-0.8-4.1-2.5v-6.5c0-1.6,1.4-2.5,4.1-2.5h8.9v1.7h-8.9c-1.3,0-1.9,0.3-1.9,0.8v6.5
		c0,0.5,0.6,0.8,1.9,0.8h5c1.3,0,1.9-0.2,1.9-0.8v-3.8h2.2v3.8c0,1.6-1.4,2.4-4.1,2.4L83.7,169.3L83.7,169.3z"/>
	<path class="st1" d="M107.5,169.3l-5.9-9.2l-6,9.2h-2.4l7.6-11.4h1.6l7.5,11.4H107.5L107.5,169.3z"/>
	<path class="st1" d="M124.4,169.3v-9.7h-6v-1.7h14v1.7h-5.8v9.7C126.5,169.3,124.4,169.3,124.4,169.3z"/>
	<path class="st1" d="M133.8,169.3v-11.4h11.7v1.7h-9.6v2.9h9.1v1.7h-9.1v3.5h9.6v1.7L133.8,169.3L133.8,169.3z"/>
	<path class="st1" d="M157.6,169.3l-4.3-5.1h-3.7v5.1h-2.2v-11.4h2.2v4.6h3.7l4.3-4.6h2.6l-5.1,5.3l5.1,6.1L157.6,169.3L157.6,169.3
		z"/>
	<path class="st1" d="M175.4,169.3l-12.2-8.9v8.9h-1.9v-11.4h1.9l11.4,8.5v-8.5h1.9v11.4H175.4L175.4,169.3z"/>
	<path class="st1" d="M182,169.3c-0.6,0-1.2-0.1-1.6-0.2c-0.4-0.1-0.8-0.3-1.1-0.6s-0.5-0.5-0.6-0.9c-0.1-0.3-0.2-0.7-0.2-1.1v-5.9
		c0-0.4,0.1-0.8,0.2-1.1s0.3-0.6,0.6-0.9s0.7-0.4,1.1-0.6c0.4-0.1,1-0.2,1.6-0.2h7.5c0.6,0,1.2,0.1,1.6,0.2c0.5,0.1,0.8,0.3,1.1,0.6
		c0.3,0.2,0.5,0.5,0.6,0.9c0.1,0.3,0.2,0.7,0.2,1.1v5.9c0,0.4-0.1,0.8-0.2,1.1c-0.1,0.3-0.3,0.6-0.6,0.9c-0.3,0.2-0.7,0.4-1.1,0.6
		c-0.4,0.1-1,0.2-1.6,0.2H182z M191,160.6c0-0.7-0.5-1.1-1.4-1.1H182c-0.9,0-1.4,0.4-1.4,1.1v5.9c0,0.7,0.5,1.1,1.4,1.1h7.5
		c0.9,0,1.4-0.4,1.4-1.1V160.6z"/>
	<path class="st1" d="M195.2,169.3v-11.4h2.2v9.7h9.3v1.7H195.2L195.2,169.3z"/>
	<path class="st1" d="M211.3,169.3c-0.6,0-1.2-0.1-1.7-0.2c-0.4-0.1-0.8-0.3-1.1-0.6c-0.3-0.2-0.5-0.5-0.6-0.9
		c-0.1-0.3-0.2-0.7-0.2-1.1v-5.9c0-0.4,0.1-0.8,0.2-1.1s0.3-0.6,0.6-0.9c0.3-0.2,0.7-0.4,1.1-0.6c0.4-0.1,1-0.2,1.7-0.2h7.5
		c0.6,0,1.2,0.1,1.6,0.2c0.4,0.1,0.8,0.3,1.1,0.6c0.3,0.2,0.5,0.5,0.6,0.9s0.2,0.7,0.2,1.1v5.9c0,0.4-0.1,0.8-0.2,1.1
		c-0.1,0.3-0.3,0.6-0.6,0.9c-0.3,0.2-0.7,0.4-1.1,0.6c-0.4,0.1-1,0.2-1.6,0.2H211.3z M220.3,160.6c0-0.7-0.5-1.1-1.4-1.1h-7.5
		c-0.9,0-1.4,0.4-1.4,1.1v5.9c0,0.7,0.5,1.1,1.4,1.1h7.5c0.9,0,1.4-0.4,1.4-1.1V160.6z"/>
	<path class="st1" d="M228.5,169.3c-2.7,0-4.1-0.8-4.1-2.5v-6.5c0-1.6,1.4-2.5,4.1-2.5h8.9v1.7h-8.9c-1.3,0-1.9,0.3-1.9,0.8v6.5
		c0,0.5,0.6,0.8,1.9,0.8h5c1.3,0,1.9-0.2,1.9-0.8v-3.8h2.2v3.8c0,1.6-1.4,2.4-4.1,2.4L228.5,169.3L228.5,169.3z"/>
	<path class="st1" d="M239.7,169.3v-11.4h2.2v11.4H239.7z"/>
	<path class="st1" d="M244.2,169.3v-1.7h9.9c0.9,0,1.4-0.4,1.4-1.1v-1.4c0-0.7-0.5-1.1-1.4-1.1h-6.7c-0.6,0-1.2-0.1-1.6-0.2
		c-0.4-0.1-0.8-0.3-1.1-0.6c-0.3-0.2-0.5-0.5-0.6-0.9c-0.1-0.3-0.2-0.7-0.2-1.1v-0.7c0-0.4,0.1-0.8,0.2-1.1c0.1-0.3,0.3-0.6,0.6-0.9
		c0.3-0.2,0.7-0.4,1.1-0.6c0.4-0.1,1-0.2,1.6-0.2h9.7v1.7h-9.7c-0.9,0-1.4,0.4-1.4,1.1v0.7c0,0.7,0.5,1.1,1.4,1.1h6.7
		c0.6,0,1.2,0.1,1.6,0.2s0.8,0.3,1.1,0.6s0.5,0.5,0.6,0.9c0.1,0.3,0.2,0.7,0.2,1.1v1.4c0,0.4-0.1,0.8-0.2,1.1
		c-0.1,0.3-0.3,0.6-0.6,0.9s-0.7,0.4-1.1,0.6c-0.4,0.1-1,0.2-1.6,0.2H244.2z"/>
	<path class="st1" d="M282.9,169.3v-8l-5.8,8h-1.8l-5.8-8v8h-2v-11.4h2l6.8,9.3l6.8-9.3h1.9v11.4H282.9L282.9,169.3z"/>
	<path class="st1" d="M300.3,169.3l-5.9-9.2l-6,9.2H286l7.6-11.4h1.6l7.5,11.4H300.3L300.3,169.3z"/>
	<path class="st1" d="M303.8,169.3v-11.4h2.2v9.7h9.3v1.7H303.8L303.8,169.3z"/>
	<path class="st1" d="M329.9,169.3l-5.9-9.2l-6,9.2h-2.4l7.6-11.4h1.6l7.5,11.4H329.9L329.9,169.3z"/>
	<path class="st1" d="M335.7,169.3v-4.6l-7.3-6.8h2.8l5.6,5.2l5.6-5.2h2.7l-7.3,6.8v4.6H335.7L335.7,169.3z"/>
	<path class="st1" d="M345.6,169.3v-1.7h9.9c1,0,1.4-0.4,1.4-1.1v-1.4c0-0.7-0.5-1.1-1.4-1.1h-6.7c-0.6,0-1.2-0.1-1.6-0.2
		c-0.5-0.1-0.8-0.3-1.1-0.6c-0.3-0.2-0.5-0.5-0.6-0.9c-0.1-0.3-0.2-0.7-0.2-1.1v-0.7c0-0.4,0.1-0.8,0.2-1.1c0.1-0.3,0.3-0.6,0.6-0.9
		c0.3-0.2,0.7-0.4,1.1-0.6c0.5-0.1,1-0.2,1.6-0.2h9.7v1.7h-9.7c-1,0-1.4,0.4-1.4,1.1v0.7c0,0.7,0.5,1.1,1.4,1.1h6.7
		c0.6,0,1.2,0.1,1.6,0.2s0.8,0.3,1.1,0.6s0.5,0.5,0.6,0.9c0.1,0.3,0.2,0.7,0.2,1.1v1.4c0,0.4-0.1,0.8-0.2,1.1
		c-0.1,0.3-0.3,0.6-0.6,0.9s-0.7,0.4-1.1,0.6c-0.5,0.1-1,0.2-1.6,0.2H345.6z"/>
	<path class="st1" d="M361,169.3v-11.4h2.2v11.4H361z"/>
	<path class="st1" d="M378.6,169.3l-5.9-9.2l-6,9.2h-2.4l7.6-11.4h1.6l7.5,11.4H378.6L378.6,169.3z"/>
</g>
<g>
	<path class="st1" d="M31.9,189.6v-6.9l-5,6.9h-1.5l-5.1-6.9v6.9h-1.7v-9.9h1.7l5.9,8.1l5.8-8.1h1.6v9.9
		C33.7,189.6,31.9,189.6,31.9,189.6z"/>
	<path class="st1" d="M47,189.6l-5.1-8l-5.2,8h-2.1l6.6-9.9h1.4l6.5,9.9C49.1,189.6,47,189.6,47,189.6z"/>
	<path class="st1" d="M50,189.6v-9.9h1.9v8.4h8v1.5L50,189.6L50,189.6z"/>
	<path class="st1" d="M72.7,189.6l-5.1-8l-5.2,8h-2.1l6.6-9.9h1.4l6.5,9.9C74.8,189.6,72.7,189.6,72.7,189.6z"/>
	<path class="st1" d="M77.7,189.6v-4l-6.4-5.9h2.4l4.9,4.5l4.9-4.5h2.4l-6.3,5.9v4H77.7L77.7,189.6z"/>
	<path class="st1" d="M86.3,189.6v-1.5h8.6c0.8,0,1.2-0.3,1.2-0.9V186c0-0.6-0.4-0.9-1.2-0.9h-5.8c-0.6,0-1-0.1-1.4-0.2
		s-0.7-0.3-1-0.5s-0.4-0.5-0.5-0.8s-0.2-0.6-0.2-1v-0.6c0-0.4,0.1-0.7,0.2-1c0.1-0.3,0.3-0.5,0.5-0.8s0.6-0.4,1-0.5
		c0.4-0.1,0.9-0.2,1.4-0.2h8.4v1.5h-8.4c-0.8,0-1.2,0.3-1.2,0.9v0.6c0,0.6,0.4,0.9,1.2,0.9h5.8c0.6,0,1,0.1,1.4,0.2s0.7,0.3,1,0.5
		s0.4,0.5,0.5,0.8s0.2,0.6,0.2,1v1.2c0,0.4-0.1,0.7-0.2,1c-0.1,0.3-0.3,0.5-0.5,0.8s-0.6,0.4-1,0.5c-0.4,0.1-0.9,0.2-1.4,0.2H86.3z"
		/>
	<path class="st1" d="M99.6,189.6v-9.9h1.9v9.9H99.6z"/>
	<path class="st1" d="M114.8,189.6l-5.1-8l-5.2,8h-2.1l6.6-9.9h1.4l6.5,9.9H114.8z"/>
	<path class="st1" d="M124.9,189.6v-9.9h8.1c0.5,0,1,0.1,1.4,0.1c0.4,0.1,0.7,0.2,0.9,0.4s0.4,0.4,0.5,0.7c0.1,0.3,0.2,0.6,0.2,0.9
		v0.9c0,0.4-0.1,0.8-0.3,1.1c-0.2,0.3-0.5,0.5-0.9,0.6c0.4,0.1,0.7,0.3,0.9,0.5c0.2,0.2,0.4,0.6,0.4,1.1v1.4c0,0.3-0.1,0.6-0.1,0.8
		c-0.1,0.3-0.3,0.5-0.5,0.7c-0.2,0.2-0.6,0.4-1,0.5c-0.4,0.1-0.9,0.2-1.5,0.2L124.9,189.6L124.9,189.6z M134.1,181.9
		c0-0.3-0.1-0.5-0.2-0.6s-0.5-0.2-0.9-0.2h-6.2v2.6h6.2c0.4,0,0.8-0.1,0.9-0.2c0.2-0.1,0.2-0.3,0.2-0.6V181.9L134.1,181.9z
		 M134.2,186.1c0-0.3-0.1-0.5-0.4-0.6c-0.2-0.1-0.5-0.2-0.9-0.2h-6.2v2.9h6.2c0.4,0,0.7-0.1,0.9-0.2s0.4-0.4,0.4-0.8V186.1
		L134.2,186.1z"/>
	<path class="st1" d="M140.9,189.6c-0.6,0-1-0.1-1.4-0.2s-0.7-0.3-1-0.5s-0.4-0.5-0.5-0.8s-0.2-0.6-0.2-1v-5.1c0-0.4,0.1-0.7,0.2-1
		c0.1-0.3,0.3-0.5,0.5-0.8s0.6-0.4,1-0.5s0.9-0.2,1.4-0.2h6.5c0.6,0,1,0.1,1.4,0.2s0.7,0.3,1,0.5s0.4,0.5,0.5,0.8s0.2,0.6,0.2,1v5.1
		c0,0.4-0.1,0.7-0.2,1c-0.1,0.3-0.3,0.5-0.5,0.8s-0.6,0.4-1,0.5s-0.9,0.2-1.4,0.2H140.9z M148.7,182.1c0-0.6-0.4-0.9-1.2-0.9h-6.5
		c-0.8,0-1.2,0.3-1.2,0.9v5.1c0,0.6,0.4,0.9,1.2,0.9h6.5c0.8,0,1.2-0.3,1.2-0.9V182.1z"/>
	<path class="st1" d="M163.2,189.6l-5.1-8l-5.2,8h-2.1l6.6-9.9h1.4l6.5,9.9H163.2L163.2,189.6z"/>
	<path class="st1" d="M175.6,189.6l-2.3-4.4h-5.2v4.4h-1.9v-9.9h8.4c0.6,0,1,0.1,1.4,0.2s0.7,0.3,1,0.5s0.4,0.5,0.5,0.8
		s0.2,0.6,0.2,1v0.7c0,0.6-0.2,1.2-0.6,1.6s-1,0.7-1.9,0.8l2.3,4.4L175.6,189.6L175.6,189.6z M175.9,182.1c0-0.6-0.4-0.9-1.2-0.9
		h-6.5v2.6h6.5c0.8,0,1.2-0.3,1.2-0.9V182.1L175.9,182.1z"/>
	<path class="st1" d="M179.2,189.6v-9.9h9.1c0.7,0,1.3,0.1,1.8,0.2s0.8,0.3,1.1,0.6c0.3,0.2,0.5,0.6,0.6,0.9
		c0.1,0.4,0.2,0.8,0.2,1.3v4.1c0,0.5-0.1,0.9-0.2,1.2s-0.3,0.6-0.6,0.9s-0.7,0.4-1.1,0.5s-1.1,0.2-1.8,0.2L179.2,189.6L179.2,189.6z
		 M190.1,182.6c0-0.3,0-0.5-0.1-0.7c-0.1-0.2-0.1-0.3-0.3-0.4s-0.3-0.2-0.6-0.2s-0.5-0.1-0.9-0.1h-7.2v7h7.2c0.4,0,0.6,0,0.9-0.1
		c0.2-0.1,0.4-0.1,0.6-0.2s0.2-0.2,0.3-0.4s0.1-0.4,0.1-0.7V182.6L190.1,182.6z"/>
	<path class="st1" d="M203.8,189.6c-0.6,0-1-0.1-1.4-0.2s-0.7-0.3-1-0.5s-0.4-0.5-0.5-0.8s-0.2-0.6-0.2-1v-5.1c0-0.4,0.1-0.7,0.2-1
		c0.1-0.3,0.3-0.5,0.5-0.8s0.6-0.4,1-0.5c0.4-0.1,0.9-0.2,1.4-0.2h6.5c0.6,0,1,0.1,1.4,0.2s0.7,0.3,1,0.5s0.4,0.5,0.5,0.8
		s0.2,0.6,0.2,1v5.1c0,0.4-0.1,0.7-0.2,1c-0.1,0.3-0.3,0.5-0.5,0.8s-0.6,0.4-1,0.5c-0.4,0.1-0.9,0.2-1.4,0.2H203.8z M211.6,182.1
		c0-0.6-0.4-0.9-1.2-0.9h-6.5c-0.8,0-1.2,0.3-1.2,0.9v5.1c0,0.6,0.4,0.9,1.2,0.9h6.5c0.8,0,1.2-0.3,1.2-0.9V182.1z"/>
	<path class="st1" d="M217.1,185.5v4.1h-1.9v-9.9h10.2v1.5h-8.3v2.9h7.8v1.5L217.1,185.5L217.1,185.5z"/>
	<path class="st1" d="M238,189.6v-8.4h-5.2v-1.5h12.1v1.5h-5.1v8.4H238z"/>
	<path class="st1" d="M246.2,189.6v-9.9h10.2v1.5H248v2.5h7.9v1.5H248v3h8.3v1.5L246.2,189.6L246.2,189.6z"/>
	<path class="st1" d="M261,189.6c-0.6,0-1-0.1-1.4-0.2c-0.4-0.1-0.7-0.3-1-0.5s-0.4-0.5-0.5-0.8c-0.1-0.3-0.2-0.6-0.2-1v-5.1
		c0-0.4,0.1-0.7,0.2-1c0.1-0.3,0.3-0.5,0.5-0.8s0.6-0.4,1-0.5c0.4-0.1,0.9-0.2,1.4-0.2h8v1.5h-8c-0.8,0-1.2,0.3-1.2,0.9v5.1
		c0,0.6,0.4,0.9,1.2,0.9h8v1.5L261,189.6L261,189.6z"/>
	<path class="st1" d="M280.5,189.6v-4.5h-8.1v4.5h-1.9v-9.9h1.9v3.9h8.1v-3.9h1.9v9.9H280.5z"/>
	<path class="st1" d="M296.4,189.6l-10.6-7.7v7.7h-1.6v-9.9h1.6l9.9,7.4v-7.4h1.6v9.9H296.4L296.4,189.6z"/>
	<path class="st1" d="M302.2,189.6c-0.6,0-1-0.1-1.4-0.2c-0.4-0.1-0.7-0.3-1-0.5s-0.4-0.5-0.5-0.8c-0.1-0.3-0.2-0.6-0.2-1v-5.1
		c0-0.4,0.1-0.7,0.2-1c0.1-0.3,0.3-0.5,0.5-0.8s0.6-0.4,1-0.5c0.4-0.1,0.9-0.2,1.4-0.2h6.5c0.6,0,1,0.1,1.4,0.2
		c0.4,0.1,0.7,0.3,1,0.5s0.4,0.5,0.5,0.8c0.1,0.3,0.2,0.6,0.2,1v5.1c0,0.4-0.1,0.7-0.2,1c-0.1,0.3-0.3,0.5-0.5,0.8s-0.6,0.4-1,0.5
		c-0.4,0.1-0.9,0.2-1.4,0.2H302.2z M309.9,182.1c0-0.6-0.4-0.9-1.2-0.9h-6.5c-0.8,0-1.2,0.3-1.2,0.9v5.1c0,0.6,0.4,0.9,1.2,0.9h6.5
		c0.8,0,1.2-0.3,1.2-0.9V182.1z"/>
	<path class="st1" d="M313.6,189.6v-9.9h1.9v8.4h8v1.5L313.6,189.6L313.6,189.6z"/>
	<path class="st1" d="M327.6,189.6c-0.6,0-1-0.1-1.4-0.2c-0.4-0.1-0.7-0.3-1-0.5s-0.4-0.5-0.5-0.8c-0.1-0.3-0.2-0.6-0.2-1v-5.1
		c0-0.4,0.1-0.7,0.2-1c0.1-0.3,0.3-0.5,0.5-0.8s0.6-0.4,1-0.5c0.4-0.1,0.9-0.2,1.4-0.2h6.5c0.6,0,1,0.1,1.4,0.2
		c0.4,0.1,0.7,0.3,1,0.5s0.4,0.5,0.5,0.8c0.1,0.3,0.2,0.6,0.2,1v5.1c0,0.4-0.1,0.7-0.2,1c-0.1,0.3-0.3,0.5-0.5,0.8s-0.6,0.4-1,0.5
		c-0.4,0.1-0.9,0.2-1.4,0.2H327.6z M335.3,182.1c0-0.6-0.4-0.9-1.2-0.9h-6.5c-0.8,0-1.2,0.3-1.2,0.9v5.1c0,0.6,0.4,0.9,1.2,0.9h6.5
		c0.8,0,1.2-0.3,1.2-0.9V182.1z"/>
	<path class="st1" d="M342.4,189.6c-2.4,0-3.5-0.7-3.5-2.1v-5.6c0-1.4,1.2-2.1,3.5-2.1h7.8v1.5h-7.8c-1.1,0-1.7,0.2-1.7,0.7v5.6
		c0,0.4,0.5,0.7,1.7,0.7h4.4c1.1,0,1.7-0.2,1.7-0.6v-3.3h1.9v3.3c0,1.4-1.2,2.1-3.5,2.1L342.4,189.6L342.4,189.6z"/>
	<path class="st1" d="M357.5,189.6v-4l-6.4-5.9h2.4l4.9,4.5l4.9-4.5h2.4l-6.3,5.9v4H357.5L357.5,189.6z"/>
</g>
<path class="st2" d="M256.9,137.6c-1.9,1.5-3.8,2.9-5.7,4.2c-0.4,0.2-0.9,0.2-1.5,0.2c2.2-1.5,4.4-3.1,6.6-4.9
	C256.5,137.3,256.7,137.5,256.9,137.6L256.9,137.6L256.9,137.6z M262,132L262,132c-1.4,1.8-3,3.5-4.8,5.2c-0.1-0.1-0.2-0.3-0.5-0.6
	c2-1.9,3.9-3.9,5.6-6C262.3,131.1,262.2,131.6,262,132L262,132L262,132z M268.9,97.3L268.9,97.3c0.5,1.6,0.8,3.3,1.1,5
	c0.1,0.6,0.1,1.1,0.1,1.7c-0.3-1.8-0.8-3.7-1.3-5.7c-0.1-1.1-0.2-2.1-0.4-3C268.6,95.9,268.8,96.5,268.9,97.3L268.9,97.3L268.9,97.3
	z M270.2,104.4L270.2,104.4c0.1,0.8,0.1,1.6,0.2,2.4c-0.1-0.4-0.1-0.9-0.1-1.4C270.3,105.1,270.2,104.7,270.2,104.4L270.2,104.4
	L270.2,104.4z M270.3,107.8L270.3,107.8c0,1.8-0.2,3.7-0.4,5.4c-0.1,0.8-0.3,1.6-0.4,2.3c0.1-1.4,0.1-2.9,0.1-4.5
	c0.3-1.8,0.6-3.6,0.7-5.2C270.3,106.4,270.3,107.1,270.3,107.8L270.3,107.8L270.3,107.8z M269.4,116L269.4,116
	c0,0.2-0.1,0.6-0.2,0.8v-0.2C269.4,116.4,269.4,116.2,269.4,116L269.4,116L269.4,116z M269.1,117.6L269.1,117.6
	c-0.7,2.5-1.6,4.9-2.7,7.2c0.2-0.6,0.4-1.1,0.6-1.8c0.8-2.1,1.6-4.1,2.2-6C269.1,117.3,269.1,117.4,269.1,117.6L269.1,117.6
	L269.1,117.6z M266.2,125.4L266.2,125.4c-0.8,1.6-1.8,3.1-2.7,4.5c-0.5,0.8-0.6,0.8-1.1,1.6c0.2-0.4,0.3-0.9,0.3-1.5
	c1.4-2.1,2.7-4.2,3.9-6.4C266.4,124.6,266.5,124.6,266.2,125.4L266.2,125.4L266.2,125.4z M249,143L249,143c-1.5,0.8-3.1,1.5-4.7,2.2
	c-0.6,0.2-1.3,0.3-1.9,0.4c2.2-0.9,4.5-2,6.7-3.2c0.6-0.1,1.1-0.1,1.6-0.2C250.1,142.4,249.6,142.7,249,143L249,143z M231.9,147.7
	L231.9,147.7c-1.9,0.1-3.8,0-5.7-0.2c-0.6-0.1-1.2-0.2-1.9-0.2c1.7,0.1,3.4,0,5.3-0.2c1.6,0.2,3.1,0.4,4.5,0.4
	C233.3,147.5,232.6,147.6,231.9,147.7L231.9,147.7z M225.4,147.4L225.4,147.4c-0.8-0.1-1.6-0.2-2.3-0.3c0.3,0,0.6,0,0.9,0.1
	C224.4,147.2,224.9,147.3,225.4,147.4L225.4,147.4z M221,146.6L221,146.6c-2.4-0.5-4.7-1.3-6.9-2.3c0.9,0.3,1.9,0.6,2.9,0.8
	c1.9,0.7,3.8,1.4,5.7,1.9C222,146.8,221.5,146.7,221,146.6L221,146.6z M212.4,143.5L212.4,143.5L212.4,143.5c-1.8-1-3.6-2.1-5.3-3.2
	c0.6,0.2,1.2,0.2,2.1,0.2c2.1,1.4,4.1,2.6,6.2,3.7C214.2,144,213.2,143.8,212.4,143.5L212.4,143.5L212.4,143.5z M211.1,142.7
	L211.1,142.7c-1.5-0.8-2.9-1.7-4.3-2.7c0.1,0.1,0.1,0.1,0.2,0.2C208.3,141.1,209.7,142,211.1,142.7L211.1,142.7z M192.7,121.7
	L192.7,121.7c-0.2-0.5-0.3-0.9-0.5-1.3c-0.2-0.9-0.4-1.9-0.4-3c0.8,2.1,1.7,4.2,2.8,6.4c0,0.9,0.1,1.7,0.2,2.3
	C194,124.6,193.4,123.1,192.7,121.7L192.7,121.7L192.7,121.7z M190.2,108.9L190.2,108.9c0-0.1,0.1-0.2,0-0.3
	C190.2,108.6,190.2,108.7,190.2,108.9C190.2,108.8,190.2,108.9,190.2,108.9L190.2,108.9z M235,67.8L235,67.8c0.2,0,0.4,0.1,0.6,0.1
	h-0.2C235.2,67.8,235.1,67.8,235,67.8L235,67.8L235,67.8z M246.7,71.1L246.7,71.1c0.3,0.2,0.7,0.3,1,0.5c1.5,0.8,3,1.6,4.5,2.5
	c-0.7-0.2-1.4-0.3-2.3-0.3c-2.1-1.3-4.1-2.4-6.2-3.4C244.8,70.5,245.8,70.7,246.7,71.1L246.7,71.1L246.7,71.1z M221.8,70L221.8,70
	c-2.6,1.1-5.1,2.4-7.7,3.8c-1.1-0.3-2-0.6-2.8-0.7c2.3-1.3,4.6-2.4,6.8-3.3C219.2,69.7,220.4,69.8,221.8,70L221.8,70L221.8,70z
	 M229.1,68.1L229.1,68.1c-2.2,0.4-4.4,0.9-6.7,1.7c-1.3-0.2-2.6-0.2-3.7-0.2c2.2-0.6,4.2-1.1,6.2-1.6
	C226.2,67.9,227.6,67.9,229.1,68.1L229.1,68.1z M200.7,94.4L200.7,94.4c-2.1,2.8-3.9,5.6-5.5,8.2c-0.6-2.1-1.1-4-1.5-5.7
	c1.4-2.4,2.9-4.9,4.7-7.5C199,90.9,199.8,92.6,200.7,94.4L200.7,94.4L200.7,94.4z M209.1,85.3L209.1,85.3c-2.8,2.8-5.4,5.6-7.8,8.4
	c-1-1.9-1.8-3.6-2.4-5c2.1-2.6,4.4-5.1,6.7-7.5C206.6,82.5,207.8,83.8,209.1,85.3L209.1,85.3L209.1,85.3z M236.2,70L236.2,70
	c-2.2,0.5-4.5,1.2-7,2.1c-1.9-0.8-3.8-1.5-5.6-2.1c2.4-0.7,4.7-1.3,6.8-1.8C232.3,68.7,234.2,69.3,236.2,70L236.2,70z M241.7,69.7
	L241.7,69.7c-1.5-0.1-3.2,0-5,0.2c-2-0.7-3.9-1.3-5.7-1.8c1.8-0.1,3.6-0.1,5.2-0.1C238,68.5,239.8,69,241.7,69.7L241.7,69.7
	L241.7,69.7z M195.8,119.5L195.8,119.5c-0.6,1.4-0.9,2.8-1.2,4c-1.1-2.2-2-4.4-2.8-6.5c0.2-1.4,0.4-3.1,0.8-4.8
	C193.5,114.6,194.6,117,195.8,119.5L195.8,119.5L195.8,119.5z M206.8,104L206.8,104c-2.5,2.9-4.8,5.7-6.8,8.3
	c-1.6-2.7-2.9-5.3-4.1-7.8c1.7-2.7,3.6-5.4,5.7-8.3C203.2,98.6,204.9,101.2,206.8,104L206.8,104L206.8,104z M216.8,93.8L216.8,93.8
	c-3.3,3.2-6.4,6.3-9.3,9.3c-1.9-2.7-3.7-5.3-5.2-7.7c2.6-2.9,5.3-5.8,8.2-8.7C212.4,89,214.5,91.3,216.8,93.8L216.8,93.8L216.8,93.8
	z M227.9,84.6L227.9,84.6c-3.4,2.7-6.8,5.5-10.2,8.4c-2.3-2.5-4.4-4.8-6.3-7c3.1-2.6,6.2-5,9.4-7.3C223,80.5,225.4,82.5,227.9,84.6
	L227.9,84.6z M244.9,74.7L244.9,74.7c-2,0.8-4.2,1.9-6.6,3.1c-2.5-1.8-5-3.4-7.3-4.8c2.5-0.9,4.8-1.7,6.9-2.2
	C240.3,71.9,242.6,73.2,244.9,74.7L244.9,74.7z M249.5,73.7L249.5,73.7c-1.2,0.2-2.5,0.4-4.1,0.8c-2.4-1.4-4.7-2.8-7-3.9
	c1.8-0.2,3.5-0.3,4.9-0.3C245.4,71.3,247.4,72.5,249.5,73.7L249.5,73.7z M202.5,129.3L202.5,129.3c-0.9,1.1-1.7,1.9-2.3,2.7
	c-1.6-2.2-3.1-4.4-4.6-6.6c0.3-1.1,0.7-2.4,1.4-3.7C198.7,124.2,200.5,126.8,202.5,129.3L202.5,129.3L202.5,129.3z M216.3,115.8
	L216.3,115.8c-2.9,2.8-5.6,5.3-8.1,7.7c-2.3-2.9-4.6-5.9-6.7-8.8c2.1-2.6,4.4-5.4,7-8.2C211,109.5,213.6,112.6,216.3,115.8
	L216.3,115.8z M248.1,87.5L248.1,87.5c-2.6,2.2-5.4,4.6-8.5,7.2c-2.9-3.1-5.8-5.9-8.7-8.7c3.2-2.3,6.2-4.3,9-6.2
	C242.6,82.3,245.4,84.8,248.1,87.5L248.1,87.5L248.1,87.5z M254.2,82.6L254.2,82.6c-1.6,1.3-3.4,2.8-5.5,4.4
	c-2.7-2.7-5.4-5.2-8.1-7.5c2.3-1.3,4.4-2.4,6.3-3.2C249.4,78.2,251.8,80.3,254.2,82.6L254.2,82.6L254.2,82.6z M257.3,80.2
	L257.3,80.2c-0.8,0.5-1.7,1.2-2.8,2c-2.3-2.2-4.7-4.3-7.2-6.2c1.5-0.5,2.8-0.9,3.9-1.1C253.4,76.6,255.4,78.4,257.3,80.2L257.3,80.2
	L257.3,80.2z M258.7,79.6L258.7,79.6c-0.3,0.1-0.7,0.3-1.2,0.6c-1.9-1.8-3.9-3.6-6-5.2c0.8,0.1,1.5,0.1,2.1,0.2
	C255.4,76.5,257.1,78,258.7,79.6L258.7,79.6z M217.8,134.2L217.8,134.2c-2.2,1.4-4.2,2.6-6.1,3.6c-2.4-2.1-4.7-4.3-7.1-6.7
	c1.5-1.4,3.2-2.9,5.2-4.7C212.5,129.2,215.1,131.7,217.8,134.2L217.8,134.2L217.8,134.2z M227.4,127.4L227.4,127.4
	c-3.2,2.3-6.1,4.5-8.9,6.4c-2.7-2.6-5.4-5.2-8.1-8c2.5-2.3,5.2-4.7,8.2-7.4C221.5,121.6,224.4,124.6,227.4,127.4L227.4,127.4z
	 M257.3,98.7L257.3,98.7c-2.2,2.6-4.6,5.3-7.3,8.2c-2.6-3.2-5.2-6.4-8-9.6c2.9-2.7,5.7-5.2,8.2-7.5
	C252.8,92.8,255.1,95.7,257.3,98.7L257.3,98.7L257.3,98.7z M262,92.2L262,92.2c-1.2,1.8-2.6,3.7-4.2,5.8c-2.2-2.9-4.6-5.9-7-8.7
	c1.9-1.8,3.7-3.4,5.2-4.8C258.2,87.1,260.1,89.6,262,92.2L262,92.2L262,92.2z M263.9,88.4L263.9,88.4c-0.4,1-0.9,2.2-1.7,3.5
	c-1.8-2.6-3.8-5.2-5.9-7.7c1-0.9,1.9-1.7,2.6-2.3C260.7,84,262.4,86.2,263.9,88.4L263.9,88.4L263.9,88.4z M264.1,86.3L264.1,86.3
	c0.1,0.5,0,1.1-0.2,1.8c-1.5-2.2-3.1-4.3-4.8-6.4c0.4-0.3,0.7-0.6,0.9-0.8C261.4,82.7,262.8,84.5,264.1,86.3L264.1,86.3z
	 M220.3,143.9L220.3,143.9c-1.7,0.2-3.3,0.4-4.7,0.4c-2.1-1.1-4.1-2.4-6.2-3.8c1.1-0.2,2.4-0.5,3.9-1
	C215.6,141.1,218,142.5,220.3,143.9L220.3,143.9L220.3,143.9z M247.7,127.9L247.7,127.9c-3.2,2.7-6.4,5.3-9.7,7.7
	c-2.4-2-4.9-4.2-7.6-6.6c3.4-2.7,6.9-5.6,10.3-8.6C243.2,123,245.5,125.5,247.7,127.9L247.7,127.9L247.7,127.9z M257,118.3
	L257,118.3c-2.7,3-5.5,6-8.6,8.9c-2.1-2.3-4.4-4.9-6.8-7.7c3.3-3.1,6.5-6.2,9.6-9.4C253.4,113,255.3,115.7,257,118.3L257,118.3
	L257,118.3z M263.6,109.2L263.6,109.2c-1.7,2.7-3.7,5.4-5.9,8.3c-1.7-2.6-3.6-5.3-5.8-8.2c2.6-2.9,5-5.7,7.1-8.3
	C260.7,103.9,262.2,106.6,263.6,109.2L263.6,109.2L263.6,109.2z M267.1,102L267.1,102c-0.8,2.1-1.9,4.2-3.1,6.6
	c-1.3-2.6-2.8-5.3-4.5-8.1c1.5-2.2,2.8-4.2,3.8-6.1C264.8,97,266,99.5,267.1,102L267.1,102z M268.2,96.8L268.2,96.8
	c-0.2,1.4-0.5,2.9-0.9,4.7c-1.1-2.4-2.3-4.9-3.7-7.5c0.6-1.4,1.1-2.6,1.4-3.7C266.1,92.5,267.2,94.7,268.2,96.8L268.2,96.8
	L268.2,96.8z M267.7,93.5L267.7,93.5c0.2,0.9,0.3,1.9,0.4,3c-0.9-2.2-2-4.3-3.1-6.5c0.1-0.8,0-1.6-0.1-2.2
	C266,89.7,266.9,91.6,267.7,93.5L267.7,93.5L267.7,93.5z M228.1,146.9L228.1,146.9c-1.8,0.1-3.6,0.1-5.2,0.1
	c-1.8-0.5-3.7-1.1-5.7-1.9c1.4,0,3.1-0.1,4.8-0.2C224.2,145.6,226.2,146.3,228.1,146.9L228.1,146.9L228.1,146.9z M235.5,144.9
	L235.5,144.9c-2.4,0.8-4.7,1.4-6.8,1.8c-1.9-0.6-4-1.3-6.1-2.2c2.2-0.6,4.5-1.3,7-2.2C231.7,143.5,233.7,144.3,235.5,144.9
	L235.5,144.9L235.5,144.9z M244.3,140.7L244.3,140.7c-2.8,1.5-5.5,2.8-8.1,4c-1.8-0.7-3.8-1.5-5.9-2.5c2.8-1.4,5.7-3,8.7-4.8
	C240.9,138.6,242.7,139.8,244.3,140.7L244.3,140.7z M253.3,134L253.3,134c-2.7,2.2-5.5,4.3-8.2,6.2c-1.6-0.9-3.4-2.1-5.2-3.4
	c3.2-2.2,6.3-4.6,9.4-7.2C250.7,131.2,252.1,132.7,253.3,134L253.3,134L253.3,134z M261.1,125.7L261.1,125.7
	c-2.2,2.6-4.6,5.2-7.1,7.7c-1.2-1.3-2.5-2.8-4.1-4.5c2.9-2.9,5.6-5.8,8.2-8.7C259.3,122.3,260.2,124.1,261.1,125.7L261.1,125.7
	L261.1,125.7z M266.5,117.4L266.5,117.4c-1.4,2.5-3.1,5.1-4.9,7.7c-0.8-1.7-1.7-3.5-2.8-5.6c2.2-2.8,4.1-5.6,5.8-8.2
	C265.3,113.4,265.9,115.5,266.5,117.4C266.5,117.4,266.5,117.4,266.5,117.4z M269.3,110.1L269.3,110.1c-0.7,2.2-1.6,4.4-2.6,6.7
	c-0.4-1.9-1.1-3.9-1.9-6.1c1.2-2.4,2.2-4.6,2.9-6.7C268.4,106.1,268.9,108.1,269.3,110.1C269.3,110.1,269.3,110.1,269.3,110.1z
	 M270.1,104.4L270.1,104.4c-0.1,1.6-0.3,3.3-0.7,5.2c-0.3-1.9-0.8-4-1.5-6.2c0.4-1.8,0.7-3.4,0.8-4.8
	C269.3,100.6,269.7,102.5,270.1,104.4L270.1,104.4L270.1,104.4z M240.8,145.9L240.8,145.9c-2.2,0.6-4.2,1.1-6.2,1.6
	c-1.4-0.1-2.9-0.2-4.5-0.4c2.2-0.4,4.4-1,6.8-1.8C238.4,145.6,239.7,145.7,240.8,145.9L240.8,145.9L240.8,145.9z M248.5,142.3
	L248.5,142.3c-2.4,1.3-4.7,2.4-7.1,3.3c-1.2-0.1-2.5-0.2-3.9-0.5c2.6-1.1,5.2-2.4,7.9-3.9C246.5,141.7,247.6,142.1,248.5,142.3
	L248.5,142.3L248.5,142.3z M255.9,136.8L255.9,136.8c-2.2,1.8-4.5,3.5-6.8,5.1c-0.9-0.2-1.9-0.6-3-1c2.7-1.9,5.4-3.9,8-6
	C254.8,135.6,255.4,136.3,255.9,136.8L255.9,136.8L255.9,136.8z M262.3,129.9L262.3,129.9c-1.8,2.2-3.7,4.3-5.7,6.3
	c-0.6-0.6-1.2-1.2-1.8-2.1c2.4-2.4,4.6-4.8,6.7-7.3C261.9,128,262.2,129.1,262.3,129.9L262.3,129.9L262.3,129.9z M266.8,122.8
	L266.8,122.8c-1.2,2.2-2.6,4.4-4.1,6.6c-0.1-0.9-0.4-1.9-0.8-3.2c1.8-2.5,3.4-5,4.8-7.4C266.8,120.2,266.9,121.6,266.8,122.8
	L266.8,122.8L266.8,122.8z M269.3,116L269.3,116c-0.6,2-1.3,4.1-2.2,6.2c0-1.2-0.1-2.6-0.2-4.1c1-2.3,1.8-4.5,2.5-6.6
	C269.5,113.2,269.4,114.7,269.3,116L269.3,116L269.3,116z"/>
<path class="st2" d="M346.8,137.9c8.9-2.6,15.8-7.9,20.1-16.5c4.8-9.6,2.9-18.8-1.8-27.7c-9.2-17.5-23.8-29.8-39.9-40.4
	c-22.9-15-47.9-25.1-74.5-31.9c8.1,1.4,16.3,2.4,24.2,4.3c30.2,7.3,58.2,19.5,82.4,39.3c10.3,8.4,19.7,17.7,25.1,30.1
	c7.1,16.4,3.3,29.4-13.6,37.3C362,135.5,354.3,135.8,346.8,137.9C346.7,137.3,347,138.4,346.8,137.9L346.8,137.9z"/>
<path class="st3" d="M203.2,34.4c1.3-0.2,2.2-0.2,3.7-0.3c41.6-4.2,78.4,9,112.9,30.9c0.2,0.2,0.3,0.6,0.4,0.7
	c-10.6-4.3-21.2-9.2-32.1-13c-19.8-7-40.3-11.1-61.4-9.3c-9.1,0.8-18.6,2.8-26.9,6.5c-13,6-17.8,18.1-12.1,32.8
	c0.7,1.9,1.6,3.7,2.7,6.1c-21.5-22.4-20.7-45.2,10.7-53.9"/>
<path class="st4" d="M224.5,0.9c1-0.2,1.8-0.2,2.9-0.3c33-3.3,62.1,7.1,89.4,24.5c0.2,0.1,0.2,0.4,0.3,0.5
	c-8.4-3.4-16.8-7.2-25.4-10.3c-15.7-5.6-32-8.8-48.6-7.4c-7.2,0.6-14.7,2.2-21.3,5.2c-10.3,4.7-14.1,14.4-9.6,26
	c0.6,1.5,1.3,2.9,2.1,4.8c-17.1-17.8-16.4-35.8,8.5-42.7"/>
<line class="st1" x1="2.3" y1="174.2" x2="381" y2="174.2"/>
</svg>
