<?xml version="1.0" encoding="UTF-8"?>
<svg id="Layer_1" data-name="Layer 1" xmlns="http://www.w3.org/2000/svg" viewBox="0 0 385.87 189.6">
  <defs>
    <style>
      .cls-1, .cls-2 {
        fill: #000f9f;
      }

      .cls-3 {
        stroke: #000;
        stroke-miterlimit: 10;
        stroke-width: 2px;
      }

      .cls-4 {
        fill: #febf32;
      }

      .cls-4, .cls-5, .cls-2 {
        fill-rule: evenodd;
      }

      .cls-5 {
        fill: #f32735;
      }
    </style>
  </defs>
  <g>
    <path class="cls-1" d="M35.68,89.93H17.84v49.06H0v-62.44H73.59c10.41,0,15.61,4.46,15.61,13.38v49.06h-17.84v-46.83c0-1.49-.73-2.23-2.19-2.23h-15.65v49.06h-17.84v-49.06Z"/>
    <path class="cls-1" d="M98.12,76.55h64.67c10.41,0,15.61,5.2,15.61,15.61v6.69c0,4.46-1.49,7.43-4.46,8.92,2.97,1.49,4.46,4.46,4.46,8.92v6.69c0,10.41-5.2,15.61-15.61,15.61H98.12v-62.44Zm60.21,24.53c1.49,0,2.23-.74,2.23-2.23v-6.65c0-1.49-.74-2.23-2.23-2.23l-42.37-.04v11.15h42.37Zm-42.37,24.48h42.37c1.49,0,2.23-.74,2.23-2.23v-6.65c0-1.49-.74-2.23-2.23-2.23h-42.37v11.1Z"/>
    <path class="cls-1" d="M347.87,76.51v13.42h-26.71v49.06h-17.88l-.04-49.06-26.71,.04v-13.56l71.36,.09Z"/>
  </g>
  <g>
    <path d="M3.4,169.33v-11.42h2.17v9.73H14.84v1.69H3.4Z"/>
    <path d="M16.34,169.33v-11.42h11.74v1.69h-9.59v2.85h9.1v1.69h-9.1v3.5h9.59v1.69h-11.74Z"/>
    <path d="M45.31,169.33v-8l-5.81,8h-1.77l-5.82-7.98v7.98h-2v-11.42h2.01l6.78,9.33,6.75-9.33h1.85v11.42h-2Z"/>
    <path d="M49.42,169.33v-11.42h9.29c.63,0,1.17,.06,1.61,.17,.45,.11,.81,.28,1.09,.49,.28,.21,.48,.47,.61,.78,.13,.31,.19,.65,.19,1.03v1.05c0,.5-.12,.92-.36,1.26-.24,.34-.57,.55-.98,.64,.43,.12,.79,.32,1.07,.61s.42,.71,.42,1.26v1.67c0,.32-.06,.64-.17,.93-.11,.3-.31,.56-.58,.79-.28,.23-.65,.41-1.11,.54-.47,.14-1.05,.2-1.75,.2h-9.33Zm10.64-8.84c0-.31-.1-.54-.29-.68-.19-.14-.55-.21-1.05-.21h-7.14v2.97h7.14c.51,0,.86-.07,1.05-.21,.19-.14,.29-.37,.29-.68v-1.18Zm.15,4.74c0-.36-.14-.61-.41-.75-.27-.15-.62-.22-1.05-.22h-7.17v3.39h7.17c.43,0,.78-.08,1.05-.24,.27-.16,.41-.48,.41-.94v-1.23Z"/>
    <path d="M76.91,169.33l-5.89-9.2-5.99,9.2h-2.4l7.59-11.42h1.57l7.54,11.42h-2.43Z"/>
    <path d="M83.69,169.33c-2.71,0-4.07-.82-4.07-2.47v-6.49c0-1.64,1.36-2.47,4.07-2.47h8.94v1.69h-8.94c-1.28,0-1.91,.26-1.91,.78v6.49c0,.52,.64,.78,1.91,.78h5.04c1.28,0,1.91-.25,1.91-.75v-3.8h2.16v3.8c0,1.62-1.36,2.43-4.07,2.43h-5.04Z"/>
    <path d="M107.46,169.33l-5.89-9.2-5.99,9.2h-2.4l7.59-11.42h1.57l7.54,11.42h-2.43Z"/>
    <path d="M124.36,169.33v-9.73h-5.99v-1.69h13.97v1.69h-5.82v9.73h-2.16Z"/>
    <path d="M133.79,169.33v-11.42h11.74v1.69h-9.59v2.85h9.1v1.69h-9.1v3.5h9.59v1.69h-11.74Z"/>
    <path d="M157.55,169.33l-4.31-5.09h-3.71v5.09h-2.16v-11.42h2.16v4.64h3.67l4.3-4.64h2.56l-5.08,5.32,5.06,6.1h-2.48Z"/>
    <path d="M175.36,169.33l-12.18-8.89v8.89h-1.88v-11.42h1.87l11.37,8.48v-8.48h1.88v11.42h-1.05Z"/>
    <path d="M182.03,169.33c-.65,0-1.2-.07-1.65-.2-.45-.13-.82-.32-1.11-.57s-.49-.53-.62-.87c-.13-.33-.19-.71-.19-1.12v-5.9c0-.41,.06-.78,.19-1.12s.34-.62,.62-.87,.66-.43,1.11-.57c.45-.14,1.01-.2,1.65-.2h7.54c.65,0,1.2,.07,1.65,.2,.46,.13,.82,.32,1.11,.57,.29,.24,.49,.53,.62,.87,.13,.33,.2,.71,.2,1.12v5.9c0,.41-.07,.78-.2,1.12-.13,.34-.34,.62-.62,.87-.29,.24-.66,.43-1.11,.57-.45,.14-1.01,.2-1.65,.2h-7.54Zm8.97-8.68c0-.7-.48-1.05-1.43-1.05h-7.54c-.95,0-1.43,.35-1.43,1.05v5.94c0,.7,.48,1.05,1.43,1.05h7.54c.95,0,1.43-.35,1.43-1.05v-5.94Z"/>
    <path d="M195.18,169.33v-11.42h2.17v9.73h9.26v1.69h-11.44Z"/>
    <path d="M211.32,169.33c-.65,0-1.2-.07-1.66-.2-.45-.13-.82-.32-1.11-.57-.29-.24-.49-.53-.62-.87-.13-.33-.19-.71-.19-1.12v-5.9c0-.41,.06-.78,.19-1.12s.34-.62,.62-.87c.29-.24,.66-.43,1.11-.57,.45-.14,1.01-.2,1.66-.2h7.54c.65,0,1.2,.07,1.65,.2,.45,.13,.82,.32,1.11,.57,.29,.24,.49,.53,.62,.87s.2,.71,.2,1.12v5.9c0,.41-.07,.78-.2,1.12-.13,.34-.34,.62-.62,.87-.29,.24-.66,.43-1.11,.57-.45,.14-1.01,.2-1.65,.2h-7.54Zm8.97-8.68c0-.7-.48-1.05-1.43-1.05h-7.54c-.95,0-1.43,.35-1.43,1.05v5.94c0,.7,.48,1.05,1.43,1.05h7.54c.95,0,1.43-.35,1.43-1.05v-5.94Z"/>
    <path d="M228.47,169.33c-2.71,0-4.07-.82-4.07-2.47v-6.49c0-1.64,1.36-2.47,4.07-2.47h8.94v1.69h-8.94c-1.28,0-1.91,.26-1.91,.78v6.49c0,.52,.64,.78,1.91,.78h5.04c1.28,0,1.91-.25,1.91-.75v-3.8h2.16v3.8c0,1.62-1.36,2.43-4.07,2.43h-5.04Z"/>
    <path d="M239.66,169.33v-11.42h2.16v11.42h-2.16Z"/>
    <path d="M244.16,169.33v-1.69h9.93c.95,0,1.43-.35,1.43-1.05v-1.44c0-.7-.48-1.05-1.43-1.05h-6.72c-.65,0-1.2-.07-1.65-.2-.45-.13-.83-.32-1.11-.57-.29-.24-.5-.53-.62-.87-.13-.33-.19-.71-.19-1.12v-.67c0-.41,.07-.78,.19-1.12,.13-.33,.34-.62,.62-.87,.29-.24,.66-.43,1.11-.57,.45-.14,1.01-.2,1.65-.2h9.67v1.69h-9.67c-.95,0-1.43,.35-1.43,1.05v.7c0,.7,.48,1.05,1.43,1.05h6.72c.65,0,1.2,.07,1.65,.2s.83,.32,1.11,.57,.5,.53,.62,.87c.13,.33,.19,.71,.19,1.12v1.41c0,.41-.07,.78-.19,1.12-.13,.34-.34,.62-.62,.87s-.66,.43-1.11,.57c-.45,.14-1.01,.2-1.65,.2h-9.93Z"/>
    <path d="M282.94,169.33v-8l-5.81,8h-1.77l-5.82-7.98v7.98h-2v-11.42h2.01l6.78,9.33,6.75-9.33h1.85v11.42h-2Z"/>
    <path d="M300.27,169.33l-5.89-9.2-5.99,9.2h-2.4l7.59-11.42h1.57l7.54,11.42h-2.43Z"/>
    <path d="M303.75,169.33v-11.42h2.17v9.73h9.26v1.69h-11.44Z"/>
    <path d="M329.92,169.33l-5.89-9.2-5.99,9.2h-2.4l7.59-11.42h1.57l7.54,11.42h-2.43Z"/>
    <path d="M335.74,169.33v-4.64l-7.33-6.78h2.76l5.64,5.22,5.65-5.22h2.73l-7.28,6.78v4.64h-2.16Z"/>
    <path d="M345.65,169.33v-1.69h9.93c.95,0,1.43-.35,1.43-1.05v-1.44c0-.7-.48-1.05-1.43-1.05h-6.72c-.65,0-1.2-.07-1.65-.2-.45-.13-.83-.32-1.11-.57-.29-.24-.5-.53-.62-.87-.13-.33-.19-.71-.19-1.12v-.67c0-.41,.07-.78,.19-1.12,.13-.33,.34-.62,.62-.87,.29-.24,.66-.43,1.11-.57,.45-.14,1.01-.2,1.65-.2h9.67v1.69h-9.67c-.95,0-1.43,.35-1.43,1.05v.7c0,.7,.48,1.05,1.43,1.05h6.72c.65,0,1.2,.07,1.65,.2s.83,.32,1.11,.57,.5,.53,.62,.87c.13,.33,.19,.71,.19,1.12v1.41c0,.41-.07,.78-.19,1.12-.13,.34-.34,.62-.62,.87s-.66,.43-1.11,.57c-.45,.14-1.01,.2-1.65,.2h-9.93Z"/>
    <path d="M361.01,169.33v-11.42h2.16v11.42h-2.16Z"/>
    <path d="M378.58,169.33l-5.89-9.2-5.99,9.2h-2.4l7.59-11.42h1.57l7.54,11.42h-2.43Z"/>
  </g>
  <g>
    <path d="M31.94,189.6v-6.93l-5.03,6.93h-1.53l-5.05-6.92v6.92h-1.73v-9.9h1.74l5.88,8.08,5.85-8.08h1.6v9.9h-1.73Z"/>
    <path d="M46.96,189.6l-5.1-7.97-5.19,7.97h-2.08l6.58-9.9h1.36l6.54,9.9h-2.11Z"/>
    <path d="M49.98,189.6v-9.9h1.88v8.44h8.03v1.46h-9.91Z"/>
    <path d="M72.66,189.6l-5.1-7.97-5.19,7.97h-2.08l6.58-9.9h1.36l6.54,9.9h-2.11Z"/>
    <path d="M77.71,189.6v-4.02l-6.36-5.88h2.39l4.89,4.53,4.89-4.53h2.36l-6.31,5.88v4.02h-1.87Z"/>
    <path d="M86.3,189.6v-1.46h8.61c.82,0,1.24-.3,1.24-.91v-1.25c0-.61-.41-.91-1.24-.91h-5.82c-.56,0-1.04-.06-1.43-.18-.39-.12-.71-.28-.96-.49s-.43-.46-.54-.75c-.11-.29-.17-.61-.17-.97v-.58c0-.36,.06-.68,.17-.97,.11-.29,.29-.54,.54-.75s.57-.38,.96-.49c.39-.12,.87-.18,1.43-.18h8.38v1.46h-8.38c-.82,0-1.24,.31-1.24,.91v.61c0,.61,.41,.91,1.24,.91h5.82c.56,0,1.04,.06,1.43,.18,.39,.12,.71,.28,.96,.49,.25,.21,.43,.46,.54,.75,.11,.29,.17,.61,.17,.97v1.22c0,.36-.06,.68-.17,.97-.11,.29-.29,.54-.54,.75-.25,.21-.57,.38-.96,.49-.39,.12-.87,.18-1.43,.18h-8.61Z"/>
    <path d="M99.62,189.6v-9.9h1.87v9.9h-1.87Z"/>
    <path d="M114.85,189.6l-5.1-7.97-5.19,7.97h-2.08l6.58-9.9h1.36l6.54,9.9h-2.11Z"/>
    <path d="M124.9,189.6v-9.9h8.06c.54,0,1.01,.05,1.4,.15,.39,.1,.7,.24,.94,.42,.24,.18,.42,.41,.53,.67,.11,.27,.17,.57,.17,.89v.91c0,.43-.11,.79-.32,1.09-.21,.29-.49,.48-.85,.55,.37,.1,.68,.28,.93,.53,.24,.25,.37,.61,.37,1.09v1.45c0,.28-.05,.55-.15,.81-.1,.26-.27,.49-.51,.68-.24,.2-.56,.35-.96,.47-.4,.12-.91,.18-1.52,.18h-8.09Zm9.22-7.66c0-.27-.08-.47-.25-.59-.17-.12-.47-.18-.91-.18h-6.19v2.57h6.19c.44,0,.75-.06,.91-.18,.17-.12,.25-.32,.25-.59v-1.03Zm.13,4.11c0-.31-.12-.53-.35-.65-.23-.13-.54-.19-.91-.19h-6.22v2.94h6.22c.38,0,.68-.07,.91-.21s.35-.41,.35-.82v-1.07Z"/>
    <path d="M140.92,189.6c-.56,0-1.04-.06-1.43-.18s-.71-.28-.96-.49-.43-.46-.54-.75c-.11-.29-.17-.61-.17-.97v-5.12c0-.36,.06-.68,.17-.97,.11-.29,.29-.54,.54-.75s.57-.38,.96-.49,.87-.18,1.43-.18h6.54c.56,0,1.04,.06,1.43,.18s.71,.28,.96,.49c.25,.21,.43,.46,.54,.75,.11,.29,.17,.61,.17,.97v5.12c0,.36-.06,.68-.17,.97-.11,.29-.29,.54-.54,.75-.25,.21-.57,.38-.96,.49s-.87,.18-1.43,.18h-6.54Zm7.78-7.52c0-.61-.41-.91-1.24-.91h-6.54c-.82,0-1.24,.31-1.24,.91v5.15c0,.61,.41,.91,1.24,.91h6.54c.82,0,1.24-.3,1.24-.91v-5.15Z"/>
    <path d="M163.18,189.6l-5.1-7.97-5.19,7.97h-2.08l6.58-9.9h1.36l6.54,9.9h-2.11Z"/>
    <path d="M175.61,189.6l-2.32-4.42h-5.22v4.42h-1.87v-9.9h8.41c.56,0,1.04,.06,1.43,.18,.39,.12,.71,.28,.96,.49,.25,.21,.43,.46,.54,.75,.11,.29,.17,.61,.17,.97v.7c0,.64-.19,1.17-.56,1.6s-1,.68-1.88,.77l2.33,4.44h-2Zm.24-7.52c0-.61-.41-.91-1.24-.91h-6.54v2.56h6.54c.83,0,1.24-.3,1.24-.91v-.73Z"/>
    <path d="M179.22,189.6v-9.9h9.07c.7,0,1.29,.06,1.76,.18s.84,.3,1.12,.55c.28,.24,.48,.55,.6,.91,.12,.37,.18,.79,.18,1.28v4.15c0,.47-.06,.88-.18,1.23s-.32,.64-.6,.88-.66,.41-1.12,.53-1.05,.18-1.76,.18h-9.07Zm10.86-6.97c0-.28-.03-.52-.08-.7-.06-.19-.15-.34-.29-.45-.14-.11-.32-.19-.55-.24-.23-.05-.52-.07-.86-.07h-7.2v6.97h7.2c.35,0,.64-.02,.86-.07,.23-.05,.41-.12,.55-.22,.14-.1,.23-.24,.29-.42,.06-.18,.08-.4,.08-.66v-4.13Z"/>
    <path d="M203.77,189.6c-.56,0-1.04-.06-1.43-.18-.39-.12-.71-.28-.96-.49-.25-.21-.43-.46-.54-.75-.11-.29-.17-.61-.17-.97v-5.12c0-.36,.06-.68,.17-.97,.11-.29,.29-.54,.54-.75,.25-.21,.57-.38,.96-.49,.39-.12,.87-.18,1.43-.18h6.54c.56,0,1.04,.06,1.43,.18,.39,.12,.71,.28,.96,.49,.25,.21,.43,.46,.54,.75,.11,.29,.17,.61,.17,.97v5.12c0,.36-.06,.68-.17,.97-.11,.29-.29,.54-.54,.75-.25,.21-.57,.38-.96,.49-.39,.12-.87,.18-1.43,.18h-6.54Zm7.78-7.52c0-.61-.41-.91-1.24-.91h-6.54c-.83,0-1.24,.31-1.24,.91v5.15c0,.61,.41,.91,1.24,.91h6.54c.82,0,1.24-.3,1.24-.91v-5.15Z"/>
    <path d="M217.05,185.52v4.08h-1.87v-9.9h10.18v1.46h-8.31v2.9h7.75v1.46h-7.75Z"/>
    <path d="M238,189.6v-8.44h-5.19v-1.46h12.11v1.46h-5.05v8.44h-1.87Z"/>
    <path d="M246.17,189.6v-9.9h10.18v1.46h-8.31v2.48h7.89v1.46h-7.89v3.04h8.31v1.46h-10.18Z"/>
    <path d="M260.98,189.6c-.56,0-1.04-.06-1.43-.18-.39-.12-.71-.28-.96-.49s-.43-.46-.54-.75c-.11-.29-.17-.61-.17-.97v-5.12c0-.36,.06-.68,.17-.97,.11-.29,.29-.54,.54-.75s.57-.38,.96-.49c.39-.12,.87-.18,1.43-.18h7.97v1.46h-7.97c-.83,0-1.24,.31-1.24,.91v5.15c0,.61,.41,.91,1.24,.91h7.97v1.46h-7.97Z"/>
    <path d="M280.49,189.6v-4.5h-8.1v4.5h-1.87v-9.9h1.87v3.94h8.1v-3.94h1.87v9.9h-1.87Z"/>
    <path d="M296.38,189.6l-10.56-7.71v7.71h-1.63v-9.9h1.62l9.86,7.35v-7.35h1.63v9.9h-.91Z"/>
    <path d="M302.16,189.6c-.56,0-1.04-.06-1.43-.18-.39-.12-.71-.28-.96-.49s-.43-.46-.54-.75c-.11-.29-.17-.61-.17-.97v-5.12c0-.36,.06-.68,.17-.97,.11-.29,.29-.54,.54-.75s.57-.38,.96-.49c.39-.12,.87-.18,1.43-.18h6.54c.56,0,1.04,.06,1.43,.18,.39,.12,.71,.28,.96,.49,.25,.21,.43,.46,.54,.75,.11,.29,.17,.61,.17,.97v5.12c0,.36-.06,.68-.17,.97-.11,.29-.29,.54-.54,.75-.25,.21-.57,.38-.96,.49-.39,.12-.87,.18-1.43,.18h-6.54Zm7.78-7.52c0-.61-.41-.91-1.24-.91h-6.54c-.83,0-1.24,.31-1.24,.91v5.15c0,.61,.41,.91,1.24,.91h6.54c.82,0,1.24-.3,1.24-.91v-5.15Z"/>
    <path d="M313.57,189.6v-9.9h1.88v8.44h8.03v1.46h-9.91Z"/>
    <path d="M327.56,189.6c-.56,0-1.04-.06-1.43-.18-.39-.12-.71-.28-.96-.49s-.43-.46-.54-.75c-.11-.29-.17-.61-.17-.97v-5.12c0-.36,.06-.68,.17-.97,.11-.29,.29-.54,.54-.75s.57-.38,.96-.49c.39-.12,.87-.18,1.43-.18h6.54c.56,0,1.04,.06,1.43,.18,.39,.12,.71,.28,.96,.49,.25,.21,.43,.46,.54,.75,.11,.29,.17,.61,.17,.97v5.12c0,.36-.06,.68-.17,.97-.11,.29-.29,.54-.54,.75-.25,.21-.57,.38-.96,.49-.39,.12-.87,.18-1.43,.18h-6.54Zm7.78-7.52c0-.61-.41-.91-1.24-.91h-6.54c-.83,0-1.24,.31-1.24,.91v5.15c0,.61,.41,.91,1.24,.91h6.54c.82,0,1.24-.3,1.24-.91v-5.15Z"/>
    <path d="M342.42,189.6c-2.35,0-3.53-.71-3.53-2.14v-5.62c0-1.42,1.18-2.14,3.53-2.14h7.75v1.46h-7.75c-1.11,0-1.66,.23-1.66,.68v5.62c0,.45,.55,.67,1.66,.67h4.37c1.11,0,1.66-.21,1.66-.65v-3.29h1.87v3.29c0,1.41-1.18,2.11-3.53,2.11h-4.37Z"/>
    <path d="M357.5,189.6v-4.02l-6.36-5.88h2.39l4.89,4.53,4.89-4.53h2.36l-6.31,5.88v4.02h-1.87Z"/>
  </g>
  <path class="cls-5" d="M256.85,137.57q-2.83,2.25-5.66,4.16-.66,.25-1.5,.25,3.33-2.25,6.58-4.91,.41,.33,.58,.5h0Zm5.16-5.58h0q-2.16,2.67-4.75,5.16-.08-.16-.5-.58,2.99-2.91,5.57-6-.08,.83-.33,1.41h0Zm6.91-34.71h0c.5,1.58,.83,3.33,1.08,4.99q.08,.83,.08,1.66-.5-2.75-1.33-5.74-.08-1.67-.41-3c.25,.67,.41,1.33,.58,2.08h0Zm1.25,7.16h0c.08,.83,.08,1.58,.17,2.41q-.09-.66-.09-1.41,0-.58-.08-1h0Zm.17,3.33h0c0,1.83-.17,3.66-.42,5.41q-.17,1.16-.42,2.33,.17-2.08,.08-4.49,.5-2.75,.67-5.25,.09,1,.09,2h0Zm-.92,8.24h0c0,.25-.08,.58-.16,.84v-.25q.16-.33,.16-.58h0Zm-.33,1.58h0c-.67,2.5-1.59,4.91-2.67,7.24q.33-.83,.58-1.75,1.25-3.16,2.16-5.99-.08,.25-.08,.5h0Zm-2.92,7.83h0c-.83,1.58-1.75,3.08-2.67,4.5-.5,.83-.58,.83-1.08,1.58q.25-.58,.33-1.5,2.16-3.16,3.91-6.41c-.25,1-.16,1-.5,1.83h0Zm-17.15,17.57h0c-1.5,.83-3.08,1.5-4.74,2.17q-.92,.25-1.92,.42,3.33-1.42,6.74-3.25,.92-.08,1.59-.25-.84,.5-1.67,.91h0Zm-17.15,4.66h0c-1.91,.09-3.82,0-5.66-.17q-.91-.16-1.92-.25,2.5,.09,5.33-.17,2.42,.33,4.5,.42-1.17,.09-2.25,.17h0Zm-6.49-.25h0c-.83-.08-1.58-.24-2.33-.33q.42,0,.92,.09,.67,.08,1.41,.24h0Zm-4.41-.83h0c-2.41-.5-4.66-1.33-6.91-2.33q1.33,.5,2.91,.75,2.92,1.08,5.66,1.91-.91-.17-1.66-.33h0Zm-8.58-3.08h0l-.08-.08q-2.58-1.42-5.25-3.16,.83,.25,2.09,.25,3.08,2.08,6.16,3.74-1.67-.33-2.91-.75h0Zm-1.33-.75h0c-1.5-.75-2.92-1.67-4.33-2.74q.08,.08,.25,.16,2,1.41,4.08,2.58h0Zm-18.32-21.06h0c-.17-.5-.33-.91-.5-1.33q-.33-1.42-.41-3,1.16,3.17,2.75,6.41,0,1.33,.17,2.33-1.08-2.25-2-4.41h0Zm-2.58-12.82h0c0-.08,.08-.25,0-.33q.08,.16,0,.25,.08,.08,0,.08h0Zm44.79-41.04h0c.25,0,.41,.08,.58,.08h-.24q-.17-.08-.33-.08h0Zm11.74,3.25h0c.33,.17,.67,.33,1,.5q2.25,1.16,4.49,2.5-1-.25-2.33-.33-3.08-1.92-6.16-3.41,1.66,.25,3,.75h0Zm-24.89-1.08h0q-3.83,1.67-7.74,3.75-1.58-.5-2.75-.67,3.41-1.91,6.83-3.33,1.58,0,3.67,.25h0Zm7.32-1.91h0q-3.25,.58-6.74,1.67-2-.25-3.74-.25,3.24-.91,6.24-1.58,2-.08,4.24,.16h0Zm-28.39,26.31h0q-3.08,4.25-5.5,8.16-.91-3.08-1.5-5.74,2.08-3.66,4.66-7.49,.92,2.33,2.33,5.08h0Zm8.41-9.07h0q-4.17,4.17-7.83,8.41-1.5-2.83-2.42-5,3.16-3.83,6.74-7.49,1.5,1.83,3.5,4.08h0Zm27.05-15.32h0q-3.25,.75-6.99,2.08-2.91-1.25-5.58-2.08,3.58-1.08,6.83-1.75,2.75,.67,5.74,1.75h0Zm5.49-.33h0q-2.25-.08-5,.25-2.99-1.08-5.66-1.75,2.74-.17,5.24-.08,2.58,.58,5.41,1.58h0Zm-45.88,49.87h0q-.83,2.16-1.16,4-1.58-3.33-2.83-6.49,.25-2.16,.75-4.83,1.42,3.58,3.25,7.32h0Zm10.99-15.57h0q-3.75,4.33-6.75,8.33-2.33-4.08-4.08-7.83,2.5-4,5.66-8.32,2.33,3.66,5.16,7.82h0Zm9.99-10.16h0q-4.91,4.75-9.32,9.32-2.92-4.08-5.16-7.66,3.83-4.42,8.24-8.66,2.83,3.25,6.24,6.99h0Zm11.07-9.16h0q-5.08,4-10.24,8.41-3.41-3.75-6.33-6.99,4.66-3.83,9.41-7.33,3.42,2.67,7.16,5.91h0Zm17.07-9.91h0q-3,1.25-6.58,3.08-3.82-2.66-7.32-4.83,3.75-1.41,6.91-2.25,3.5,1.75,6.99,4h0Zm4.58-1h0q-1.75,.25-4.08,.83-3.58-2.17-6.99-3.91,2.74-.33,4.91-.33,3.08,1.5,6.16,3.41h0Zm-46.96,55.53h0q-1.41,1.58-2.33,2.66-2.41-3.25-4.58-6.58,.41-1.66,1.41-3.74,2.5,3.91,5.49,7.66h0Zm13.74-13.48h0q-4.33,4.16-8.08,7.66-3.5-4.41-6.66-8.83,3.16-3.91,7-8.24,3.66,4.66,7.74,9.41h0Zm31.81-28.31h0q-3.91,3.33-8.5,7.24-4.41-4.58-8.66-8.66,4.74-3.41,8.99-6.16,4.08,3.58,8.16,7.57h0Zm6.08-4.91h0q-2.42,1.92-5.5,4.41-4.08-4-8.07-7.5,3.49-2,6.32-3.25,3.75,2.91,7.24,6.33h0Zm3.17-2.33h0q-1.16,.75-2.83,2-3.5-3.33-7.16-6.24,2.25-.75,3.91-1.08,3.16,2.58,6.08,5.33h0Zm1.33-.66h0q-.41,.17-1.16,.58-2.91-2.75-6-5.25,1.25,.09,2.08,.25,2.67,2.08,5.08,4.42h0Zm-40.88,54.61h0q-3.33,2.08-6.08,3.58-3.58-3.16-7.08-6.66,2.25-2.08,5.16-4.66,4,4.08,7.99,7.74h0Zm9.57-6.74h0q-4.75,3.5-8.91,6.41-4.08-3.83-8.07-7.99,3.74-3.41,8.24-7.41,4.33,4.66,8.74,8.99h0Zm29.98-28.72h0q-3.25,3.83-7.33,8.16-3.83-4.83-7.99-9.57,4.41-4,8.24-7.49,3.75,4.41,7.08,8.91h0Zm4.66-6.49h0q-1.75,2.66-4.16,5.83-3.33-4.42-6.99-8.74,2.91-2.75,5.25-4.75,3.08,3.75,5.91,7.66h0Zm1.91-3.83h0q-.58,1.5-1.67,3.5-2.74-3.91-5.91-7.66,1.5-1.41,2.58-2.33,2.66,3.16,5,6.49h0Zm.17-2.08h0q.08,.75-.17,1.83-2.25-3.25-4.83-6.41,.58-.5,.92-.83,2.16,2.66,4.08,5.41h0Zm-43.79,57.53h0q-2.58,.33-4.66,.41-3.08-1.66-6.24-3.83,1.67-.25,3.91-1,3.5,2.42,6.99,4.41h0Zm27.39-15.98h0q-4.83,4.08-9.66,7.66-3.58-3-7.58-6.58,5.16-4.08,10.33-8.58,3.66,4,6.91,7.49h0Zm9.32-9.58h0q-4,4.5-8.58,8.91-3.16-3.49-6.75-7.66,5-4.66,9.58-9.41,3.16,4.33,5.74,8.16h0Zm6.58-9.07h0q-2.58,3.99-5.91,8.32-2.58-3.83-5.75-8.16,3.92-4.33,7.08-8.33,2.57,4.25,4.58,8.16h0Zm3.49-7.24h0q-1.25,3.08-3.08,6.58-1.99-3.91-4.49-8.08,2.25-3.33,3.83-6.08,2.16,3.83,3.74,7.58h0Zm1.08-5.16h0q-.25,2.08-.92,4.66-1.58-3.67-3.66-7.49,.92-2.08,1.41-3.74,1.75,3.33,3.17,6.58h0Zm-.42-3.33h0q.25,1.33,.42,3-1.41-3.25-3.08-6.49,.08-1.25-.09-2.17,1.5,2.83,2.75,5.66h0Zm-39.62,53.36h0q-2.75,.17-5.17,.09-2.75-.75-5.66-1.91,2.17,0,4.83-.25,3.16,1.25,5.99,2.08h0Zm7.4-1.91h0q-3.66,1.16-6.82,1.83-2.91-.83-6.08-2.16,3.25-.83,7-2.16,3.16,1.5,5.91,2.5h0Zm8.75-4.25h0q-4.17,2.25-8.08,4-2.75-1-5.91-2.5,4.17-2.08,8.66-4.83,2.92,1.92,5.33,3.33h0Zm8.99-6.66h0q-4.08,3.33-8.25,6.16-2.41-1.41-5.25-3.41,4.75-3.33,9.41-7.24,2.33,2.49,4.08,4.49h0Zm7.82-8.33h0q-3.33,3.92-7.07,7.66-1.75-2-4.08-4.5,4.33-4.33,8.24-8.66,1.67,3.08,2.91,5.49h0Zm5.41-8.32h0q-2.17,3.75-4.92,7.66-1.16-2.5-2.83-5.58,3.25-4.24,5.75-8.24,1.17,3.33,2,6.16h0Zm2.83-7.33h0q-1.09,3.25-2.58,6.66-.67-2.83-1.92-6.08,1.83-3.58,2.91-6.74,1,3.25,1.59,6.16h0Zm.75-5.66h0q-.17,2.41-.67,5.16-.5-2.91-1.5-6.16,.59-2.67,.83-4.83,.83,3,1.33,5.83h0Zm-29.22,41.46h0q-3.25,.92-6.25,1.58-2.08-.08-4.5-.41,3.25-.58,6.82-1.75,2.17,.41,3.92,.58h0Zm7.66-3.58h0q-3.58,1.91-7.07,3.33-1.75-.09-3.91-.5,3.83-1.67,7.91-3.92,1.67,.75,3.08,1.09h0Zm7.41-5.5h0q-3.33,2.75-6.83,5.08-1.33-.34-2.99-1,4.08-2.83,7.99-5.99,1.08,1.17,1.83,1.92h0Zm6.41-6.83h0q-2.75,3.25-5.74,6.33-.84-.83-1.83-2.08,3.58-3.58,6.74-7.32,.59,1.75,.83,3.08h0Zm4.5-7.16h0q-1.83,3.24-4.08,6.58-.17-1.33-.75-3.16,2.66-3.75,4.75-7.41,.16,2.16,.08,4h0Zm2.5-6.75h0q-.83,3-2.16,6.16,0-1.83-.17-4.08,1.5-3.42,2.5-6.58,0,2.42-.17,4.5h0Z"/>
  <path class="cls-5" d="M346.82,137.88c8.91-2.6,15.82-7.86,20.11-16.53,4.76-9.6,2.86-18.84-1.77-27.71-9.16-17.52-23.76-29.82-39.93-40.43-22.9-15.02-47.87-25.14-74.5-31.87,8.08,1.41,16.27,2.38,24.23,4.31,30.19,7.31,58.16,19.48,82.43,39.26,10.27,8.38,19.67,17.69,25.06,30.07,7.14,16.41,3.3,29.37-13.61,37.33-6.88,3.23-14.59,3.51-22.02,5.56-.14-.54,.13,.55,0,0Z"/>
  <path class="cls-4" d="M203.18,34.38c1.26-.19,2.24-.2,3.71-.35,41.62-4.2,78.43,9.01,112.89,30.87,.23,.15,.3,.55,.37,.69-10.61-4.35-21.18-9.15-32.09-13.03-19.83-7.03-40.33-11.14-61.41-9.35-9.11,.78-18.61,2.76-26.88,6.54-13.03,5.95-17.82,18.14-12.12,32.83,.72,1.87,1.61,3.68,2.68,6.09-21.52-22.44-20.67-45.23,10.68-53.86"/>
  <path class="cls-2" d="M224.48,.9c.98-.16,1.77-.16,2.94-.29,32.96-3.33,62.13,7.14,89.41,24.45,.19,.11,.24,.43,.3,.54-8.41-3.44-16.79-7.25-25.42-10.31-15.71-5.58-31.95-8.83-48.65-7.41-7.22,.62-14.74,2.19-21.29,5.18-10.33,4.71-14.1,14.37-9.6,26,.58,1.48,1.28,2.91,2.13,4.83-17.05-17.79-16.36-35.83,8.46-42.67"/>
  <line class="cls-3" x1="2.34" y1="174.25" x2="381.02" y2="174.25"/>
</svg>