<?xml version="1.0" encoding="UTF-8"?>
<svg id="Layer_1" data-name="Layer 1" xmlns="http://www.w3.org/2000/svg" viewBox="0 0 444.15 70.02">
  <defs>
    <style>
      .cls-1 {
        fill: #e95153;
      }

      .cls-2 {
        fill: #312b6b;
      }
    </style>
  </defs>
  <path class="cls-2" d="M151.32,50.25c0,.9-.29,1.63-.91,2.2-.6,.55-1.41,.83-2.4,.83h-11.91v-3.04h11.91v-5.93h-8.89c-1,0-1.8-.29-2.41-.86-.6-.55-.89-1.29-.89-2.18v-4.66c0-.84,.33-1.57,.96-2.15,.64-.59,1.42-.88,2.35-.88h11.05v3.03h-11.05v4.66h8.89c.96,0,1.76,.29,2.37,.87,.63,.56,.94,1.29,.94,2.17"/>
  <path class="cls-2" d="M170.23,50.25c0,.9-.31,1.63-.91,2.2-.62,.55-1.41,.83-2.4,.83h-10.01c-.97,0-1.76-.28-2.38-.83-.62-.58-.93-1.3-.93-2.2v-12.24h3.31v12.24h10.01v-12.24h3.31"/>
  <path class="cls-2" d="M187.77,44.14h-3.3v-3.08h-8.6v12.21h-3.29v-15.26h11.89c2.19,0,3.3,1.02,3.3,3.06"/>
  <path class="cls-2" d="M206.52,50.25c0,.9-.31,1.63-.93,2.2-.6,.55-1.39,.83-2.38,.83h-10.03c-.96,0-1.75-.28-2.37-.83-.63-.58-.95-1.3-.95-2.2v-12.24h3.31v12.24h10.03v-12.24h3.31"/>
  <path class="cls-2" d="M225.71,53.28h-3.3v-12.21h-10.03v12.21h-3.31v-19.69h3.31v4.42h10.03c2.2,0,3.3,1.01,3.3,3.06"/>
  <path class="cls-2" d="M231.56,47.18h10.02v3.06h-10.02m13.34-9.17c0-.9-.31-1.62-.93-2.19-.61-.58-1.4-.87-2.38-.87h-13.34v3.06h13.34v3.08h-10.02c-.96,0-1.76,.29-2.37,.86-.63,.58-.95,1.3-.95,2.17v3.06c0,.88,.32,1.6,.96,2.19,.62,.56,1.41,.85,2.35,.85h13.34v-12.21Z"/>
  <path class="cls-2" d="M263.19,53.28h-3.31v-12.21h-9.18v12.21h-3.3v-15.27h12.48c2.2,0,3.31,1.01,3.31,3.06"/>
  <path class="cls-2" d="M271.98,55.31c0,.86-.33,1.59-.96,2.17-.63,.59-1.43,.88-2.37,.88h-3.31v-3.04h3.31v-17.3h3.32"/>
  <path class="cls-2" d="M277.85,47.18h10.02v3.06h-10.02m13.32-9.17c0-.9-.3-1.62-.93-2.19-.6-.58-1.39-.87-2.37-.87h-13.34v3.06h13.34v3.08h-10.02c-.98,0-1.76,.29-2.38,.86-.62,.58-.94,1.3-.94,2.17v3.06c0,.88,.32,1.6,.96,2.19,.6,.56,1.39,.85,2.36,.85h13.32v-12.21Z"/>
  <polyline class="cls-2" points="309.55 38.01 300.39 59.42 297.03 59.42 299.54 53.25 292.92 38.01 296.36 38.01 301.22 50.16 306.05 38.01"/>
  <path class="cls-2" d="M314.55,47.18h10.04v3.06h-10.04m13.34-9.17c0-.9-.31-1.62-.93-2.19-.63-.58-1.41-.87-2.37-.87h-13.33v3.06h13.33v3.08h-10.04c-.96,0-1.76,.29-2.37,.86-.62,.58-.92,1.3-.92,2.17v3.06c0,.88,.31,1.6,.94,2.19,.61,.56,1.42,.85,2.36,.85h13.34v-12.21Z"/>
  <polyline class="cls-2" points="349.86 36.2 343.15 36.2 343.15 52.85 339.86 52.85 339.86 36.2 333.25 36.2 333.25 33.16 349.86 33.16"/>
  <path class="cls-2" d="M355.16,40.63h10.04v3.09h-10.04m13.34-3.09c0-.88-.31-1.61-.93-2.18-.61-.57-1.4-.86-2.37-.86h-10.04c-1,0-1.82,.28-2.39,.83-.62,.54-.9,1.29-.9,2.22v9.18c0,.9,.31,1.63,.93,2.2,.63,.54,1.4,.84,2.36,.84h12.47v-3.05h-12.47v-3.05h10.04c1.01,0,1.79-.28,2.41-.83,.59-.56,.9-1.3,.9-2.2v-3.09Z"/>
  <path class="cls-2" d="M386.8,52.85h-3.32v-12.23h-9.17v12.23h-3.31v-15.27h12.48c2.19,0,3.32,1.02,3.32,3.05"/>
  <path class="cls-2" d="M392.32,46.75h10.04v3.05h-10.04m13.34-9.18c0-.88-.31-1.61-.93-2.18-.6-.57-1.41-.86-2.37-.86h-13.34v3.05h13.34v3.09h-10.04c-.97,0-1.75,.29-2.36,.86-.63,.57-.94,1.31-.94,2.18v3.05c0,.89,.32,1.62,.95,2.18,.62,.57,1.42,.87,2.35,.87h13.34v-12.23Z"/>
  <path class="cls-2" d="M411.57,40.63h10.02v9.17h-10.02m13.33-12.22h-13.33c-.99,0-1.78,.28-2.39,.83-.61,.57-.92,1.31-.92,2.21v9.27c0,.82,.33,1.53,.98,2.1,.66,.56,1.44,.86,2.33,.86h10.02v2.03h-13.36v3.05h13.36c2.19,0,3.31-1.02,3.31-3.05v-17.3Z"/>
  <path class="cls-2" d="M430.82,46.75h10.02v3.05h-10.02m13.33-9.18c0-.88-.3-1.61-.93-2.18-.6-.57-1.41-.86-2.37-.86h-13.33v3.05h13.33v3.09h-10.02c-.98,0-1.76,.29-2.36,.86-.63,.57-.95,1.31-.95,2.18v3.05c0,.89,.32,1.62,.95,2.18,.62,.57,1.41,.87,2.36,.87h13.33v-12.23Z"/>
  <path class="cls-1" d="M41.57,28.86C41.57,12.92,69.46,0,103.86,0c20.08,0,37.94,4.41,49.33,11.26-10.98-2.75-24.14-4.35-38.31-4.35-38.19,0-69.13,11.61-69.13,25.95,0,10.71,17.21,19.88,41.81,23.87-26.49-3.33-45.99-14.53-45.99-27.88"/>
  <path class="cls-1" d="M101.97,40.06c0-6.63-6.26-12.74-16.81-17.62,24.11,4.66,40.02,12.6,40.02,21.63,0,14.33-40.19,25.95-89.74,25.95-12.59,0-24.57-.75-35.44-2.1,6.74,.64,13.83,1.01,21.13,1.01,44.66,0,80.84-12.93,80.84-28.87"/>
</svg>