<?xml version="1.0" encoding="UTF-8"?>
<svg id="Layer_1" data-name="Layer 1" xmlns="http://www.w3.org/2000/svg" viewBox="0 0 187.09 52.31">
  <defs>
    <style>
      .cls-1 {
        fill: #e63b1e;
      }

      .cls-1, .cls-2 {
        fill-rule: evenodd;
      }

      .cls-2 {
        fill: #005ea9;
      }
    </style>
  </defs>
  <path class="cls-1" d="M42.07,0H4.78S.27-.26,0,4.78V25.35s.31,4.51,4.78,4.51h2.87s3.1-1.25,3.1,3.53c0,0-.53,3.9,2.79,6.02,0,0,3.72,2.26,6.37-1.46l11.68-18.18s1.81-2.79-2.17-2.79h-3.98s-3.14,.26-1.41-2.79l2.66-6.64-10.75,11.95s-1.69,3.05,2.07,2.79h4.83s1.99,.56,0,3.4l-5.58,8.54s-1.46,2.55-1.73-1.24v-3.13s-.18-4.51-4.16-4.51H7.25s-2.47,.75-2.47-4.03V7.38s-.85-2.6,3-2.6h31.28c3.85,0,3,2.6,3,2.6v13.94c0,4.78-2.47,4.03-2.47,4.03h-4.12c-3.98,0-4.16,4.51-4.16,4.51v8.76s.49,2.33-3.43,2.41h-.32c-.17,0-.35,0-.54-.02v.02H13.08c-1.21,0-2.19,.98-2.19,2.19s.98,2.19,2.19,2.19H29.89l.57,.02c.42,.02,.8,0,1.16-.02h.57c.4,0,.77-.11,1.09-.29,3.24-1.02,2.82-4.1,2.82-4.1v-7.3l-.02-.31c0-4.78,3.1-3.53,3.1-3.53h2.87c4.46,0,4.78-4.51,4.78-4.51V4.78C46.58-.26,42.07,0,42.07,0h0Z"/>
  <path class="cls-1" d="M28.54,52.31c1.2,0,2.17-.97,2.17-2.17s-.97-2.17-2.17-2.17h-10.82c-1.2,0-2.17,.97-2.17,2.17s.97,2.17,2.17,2.17h10.82Z"/>
  <polygon class="cls-2" points="55.6 18.22 64.38 18.22 63.79 22.45 61.51 22.33 60.26 31.23 56.08 31.23 57.33 22.33 55.01 22.45 55.6 18.22 55.6 18.22"/>
  <polygon class="cls-2" points="65.42 18.22 73.15 18.22 72.65 21.78 69.13 21.78 68.95 23.02 72.17 23.02 71.7 26.41 68.48 26.41 68.3 27.68 71.95 27.68 71.45 31.23 63.6 31.23 65.42 18.22 65.42 18.22"/>
  <path class="cls-2" d="M74.91,18.22h4.02l2.74,7.22h.12c-.02-1.09-.04-2.21,.11-3.32l.55-3.9h4l-1.82,13.01h-4l-2.72-6.83h-.12c.01,.9,.02,1.74-.1,2.61l-.59,4.23h-4l1.82-13.01h0Z"/>
  <path class="cls-2" d="M91.58,26.53l1.32-3.98h.15c0,.55,0,1.12,.04,1.68l.17,2.3h-1.68Zm-1.18,3.09h3.16l.16,1.62h4.42l-2.28-13.01h-4.62l-5.81,13.01h4.42l.56-1.62h0Z"/>
  <path class="cls-2" d="M112.24,23.57c-.33,2.13-.58,3.9-2.16,5.55-1.43,1.5-3.42,2.31-5.2,2.31-3.51,0-6-2.45-5.42-6.62,.59-4.24,3.71-6.79,7.32-6.79,2,0,4.58,1.12,5.17,3.35l-4.13,1.61c-.23-.65-.78-.99-1.45-.99-1.49,0-2.52,1.44-2.74,3.01-.2,1.44,.41,2.77,1.76,2.77,.66,0,1.54-.34,1.85-1.12h-1.89l.43-3.08h6.45Z"/>
  <path class="cls-2" d="M117.72,26.53l1.32-3.98h.15c0,.55,0,1.12,.04,1.68l.17,2.3h-1.68Zm-1.18,3.09h3.16l.16,1.62h4.42l-2.28-13.01h-4.62l-5.82,13.01h4.42l.56-1.62h0Z"/>
  <path class="cls-2" d="M56.92,33.52h4.02l2.74,7.22h.12c-.02-1.09-.04-2.21,.11-3.31l.55-3.9h4l-1.82,13.02h-4l-2.72-6.84h-.12c.01,.9,.02,1.74-.1,2.61l-.59,4.23h-4l1.82-13.02h0Z"/>
  <path class="cls-2" d="M73.59,41.84l1.32-3.97h.15c0,.55,0,1.12,.04,1.68l.17,2.3h-1.68Zm-1.18,3.08h3.16l.15,1.62h4.42l-2.28-13.02h-4.62l-5.81,13.02h4.42l.56-1.62h0Z"/>
  <path class="cls-2" d="M82.36,41.88l.19,.19c.66,.65,1.48,1.19,2.44,1.19,.41,0,1.1-.19,1.18-.78,.08-.58-.46-.64-.83-.72l-.81-.17c-1.59-.33-2.81-1.41-2.52-3.45,.43-3.09,3.16-4.81,5.66-4.81,1.31,0,2.46,.36,3.48,1.14l-1.59,3.33c-.64-.55-1.38-.98-2.28-.98-.37,0-.93,.16-1,.69-.07,.48,.45,.55,.75,.64l.91,.24c1.7,.45,2.83,1.52,2.52,3.72-.43,3.1-3.14,4.64-5.63,4.64-1.45,0-3.06-.45-4.26-1.19l1.79-3.67h0Z"/>
  <polygon class="cls-2" points="92.97 33.52 97.15 33.52 95.33 46.54 91.16 46.54 92.97 33.52 92.97 33.52"/>
  <path class="cls-2" d="M104.46,37.6c1.33,0,1.99,1.15,1.8,2.53-.21,1.48-1.23,2.5-2.5,2.5s-2.01-1.01-1.8-2.5c.19-1.38,1.18-2.53,2.51-2.53h0Zm.6-4.28c-3.49,0-6.73,2.66-7.3,6.74-.58,4.17,1.92,6.67,5.43,6.67s6.71-2.5,7.29-6.67c.57-4.08-1.92-6.74-5.42-6.74h0Z"/>
  <path class="cls-2" d="M112.81,33.52h4.02l2.75,7.22h.12c-.02-1.09-.04-2.21,.11-3.31l.55-3.9h4l-1.82,13.02h-4l-2.72-6.84h-.12c.01,.9,.02,1.74-.11,2.61l-.59,4.23h-4l1.82-13.02h0Z"/>
  <path class="cls-2" d="M129.47,41.84l1.32-3.97h.15c0,.55,0,1.12,.04,1.68l.17,2.3h-1.68Zm-1.18,3.08h3.16l.16,1.62h4.42l-2.28-13.02h-4.62l-5.82,13.02h4.42l.56-1.62h0Z"/>
  <polygon class="cls-2" points="138.73 33.52 142.9 33.52 141.67 42.36 145.18 42.36 144.59 46.54 136.91 46.54 138.73 33.52 138.73 33.52"/>
  <path class="cls-2" d="M152.36,42.41l.14-.99h.16c.33,0,.75-.04,.67,.48-.07,.48-.44,.52-.77,.52h-.2Zm-2.69,4.33h3.06c1.08,0,2.34-.49,2.54-1.94,.12-.84-.23-1.4-.87-1.67v-.06c.58-.2,.94-.8,1.02-1.41,.23-1.62-.95-1.94-2.15-1.94h-2.62l-.98,7.02h0Zm2.49-2.85h.22c.36,0,.93,0,.84,.58-.08,.58-.61,.59-.98,.59h-.25l.16-1.17h0Z"/>
  <polygon class="cls-2" points="156.67 39.73 160.83 39.73 160.56 41.64 158.66 41.64 158.57 42.32 160.3 42.32 160.05 44.14 158.31 44.14 158.22 44.83 160.18 44.83 159.91 46.75 155.68 46.75 156.67 39.73 156.67 39.73"/>
  <path class="cls-2" d="M163.77,41.64h.17c.39,0,.71,.06,.64,.6-.07,.52-.45,.59-.82,.59h-.16l.17-1.19h0Zm-2.91,5.1h2.2l.31-2.25h.04l.67,2.25h2.6l-1.03-2.28c-.09-.21-.22-.32-.32-.42v-.05c.89-.32,1.32-.76,1.46-1.83,.25-1.77-.84-2.44-2.24-2.44h-2.72l-.98,7.02h0Z"/>
  <polygon class="cls-2" points="168.06 39.73 170.22 39.73 169.89 42.09 171.27 42.09 171.6 39.73 173.77 39.73 172.79 46.75 170.62 46.75 170.96 44.31 169.58 44.31 169.24 46.75 167.07 46.75 168.06 39.73 168.06 39.73"/>
  <path class="cls-2" d="M176.57,44.21l.71-2.14h.08c0,.3,0,.61,.02,.9l.09,1.24h-.9Zm-.64,1.67h1.7l.08,.87h2.38l-1.23-7.02h-2.49l-3.14,7.02h2.38l.3-.87h0Z"/>
  <path class="cls-2" d="M183.51,41.93h.14c.83,0,1.27,.42,1.13,1.4-.13,.92-.76,1.31-1.51,1.31h-.14l.38-2.71h0Zm-2.93,4.82h2.85c1.82,0,3.3-1.32,3.59-3.4,.36-2.58-1.09-3.61-3.17-3.61h-2.29l-.98,7.02h0Z"/>
</svg>